# Wavefront Obj file
# 
# verts: 33 uv-s: 88
mtllib M_DW90.mtl

g Defensive_Wall___90_D_Corner
#pivot 0.000000 0.000000 0.000000

v -61.095001 0.000000 12.179901
v -61.095001 0.000000 -13.846901
v 32.678799 0.000000 -13.234100
v 55.766201 0.000000 11.567101
v 55.766201 81.038101 11.567101
v -61.095001 81.038101 12.179901
v -61.095001 81.038101 -13.846901
v 61.095001 81.038101 17.291401
v -61.095001 81.038101 18.187199
v 53.412601 86.301697 9.038799
v -61.095001 86.301697 9.526699
v 47.313702 91.474701 2.487099
v -61.095001 91.474701 2.651199
v -61.095001 86.301697 -11.193699
v -61.095001 91.474701 -4.318199
v 44.222500 94.497101 -0.833500
v -61.095001 94.497101 -0.833500
v 32.678799 81.038101 -13.234100
v -61.095001 81.038101 -19.854200
v 27.350100 81.038101 -18.958401
v 35.032398 86.301697 -10.705799
v 41.131401 91.474701 -4.154100
v 32.678799 0.000000 -87.599197
v 55.766201 0.000000 -87.541603
v 55.766201 81.038101 -87.541603
v 32.678799 81.038101 -87.599197
v 61.095001 81.038101 -87.528297
v 27.350100 81.038101 -87.612503
v 53.412601 86.301697 -87.547501
v 35.032398 86.301697 -87.593300
v 47.313702 91.474701 -87.562698
v 41.131401 91.474701 -87.578102
v 44.222500 94.497101 -87.570396
# 33 positions

vt 0.634777 0.727939
vt 0.553100 0.727511
vt 0.556566 0.433243
vt 0.634777 0.361199
vt 0.010000 0.735685
vt 0.376741 0.735685
vt 0.376741 0.990000
vt 0.010000 0.990000
vt 0.010000 0.472722
vt 0.091678 0.472722
vt 0.091678 0.727037
vt 0.010000 0.727037
vt 0.795867 0.395083
vt 0.795867 0.028341
vt 0.813918 0.011712
vt 0.814719 0.395182
vt 0.785918 0.206448
vt 0.785918 0.589918
vt 0.755051 0.565999
vt 0.754114 0.206647
vt 0.728741 0.547015
vt 0.727112 0.206809
vt 0.115426 0.700307
vt 0.115426 0.635282
vt 0.131660 0.656859
vt 0.131660 0.678730
vt 0.714593 0.537398
vt 0.712637 0.206895
vt 0.141144 0.667794
vt 0.383814 0.990000
vt 0.383814 0.735685
vt 0.678103 0.735685
vt 0.678103 0.990000
vt 0.643178 0.727134
vt 0.643130 0.708281
vt 0.920697 0.710399
vt 0.937464 0.728321
vt 0.639355 0.207314
vt 0.671159 0.207138
vt 0.674135 0.508796
vt 0.643282 0.484860
vt 0.698161 0.206980
vt 0.700444 0.527781
vt 0.323196 0.432018
vt 0.323757 0.359567
vt 0.476763 0.472722
vt 0.476763 0.727037
vt 0.165739 0.727037
vt 0.165739 0.472722
vt 0.010000 0.231265
vt 0.264315 0.231265
vt 0.264315 0.464639
vt 0.010000 0.464639
vt 0.484845 0.026723
vt 0.484974 0.010000
vt 0.920158 0.494948
vt 0.936881 0.494948
vt 0.286605 0.245328
vt 0.260707 0.216103
vt 0.589653 0.216103
vt 0.589713 0.245328
vt 0.374466 0.351882
vt 0.348568 0.322657
vt 0.589857 0.322657
vt 0.589918 0.351882
vt 0.307166 0.270425
vt 0.589761 0.270425
vt 0.328007 0.297560
vt 0.589809 0.297560
vt 0.317586 0.283993
vt 0.589785 0.283993
vt 0.115426 0.700307
vt 0.131660 0.678730
vt 0.131660 0.656859
vt 0.115426 0.635282
vt 0.687196 0.990000
vt 0.687196 0.735685
vt 0.759650 0.735685
vt 0.759650 0.990000
vt 0.141144 0.667794
vt 0.098907 0.626955
vt 0.098907 0.608103
vt 0.098907 0.727485
vt 0.098907 0.708633
vt 0.098907 0.708633
vt 0.098907 0.727485
vt 0.098907 0.608103
vt 0.098907 0.626955
# 88 texture coordinates

vn -0.202754 -0.299433 0.932325
vn -0.458701 -0.192381 -0.867515
vn -0.570643 -0.384625 -0.725555
vn 0.598960 -0.385455 0.701906
vn 0.646123 -0.095972 0.757176
vn -0.228429 -0.071972 0.970897
vn -0.280649 -0.070955 -0.957184
vn 0.547123 0.548403 0.632385
vn -0.037329 0.449802 0.892348
vn 0.296776 0.888466 0.350074
vn -0.112562 0.824815 0.554085
vn 0.332531 0.854251 0.399597
vn -0.038916 0.783688 0.619934
vn -0.133731 0.822634 -0.552620
vn -0.041266 0.783614 -0.619876
vn -0.000000 1.000000 -0.000000
vn -0.028686 0.999588 -0.000000
vn -0.051539 0.449518 -0.891783
vn -0.509147 0.546891 -0.664590
vn -0.285998 0.888096 -0.359847
vn -0.328451 0.854103 -0.403272
vn -0.921424 -0.262713 -0.286287
vn 0.938533 -0.267229 -0.218505
vn 0.967855 -0.063603 -0.243334
vn -0.946208 -0.062270 -0.317510
vn 0.911932 0.407715 -0.046355
vn -0.910580 0.407242 -0.070690
vn 0.598760 0.790220 -0.130533
vn -0.595361 0.786700 -0.163244
vn 0.664932 0.745508 -0.045643
vn -0.664685 0.745497 -0.049267
vn 0.000087 0.999393 -0.034824
# 32 normals

usemtl wire_138008110
f 1/1/1 2/2/2 3/3/3 4/4/4
f 1/5/1 4/6/4 5/7/5 6/8/6
f 2/9/2 1/10/1 6/11/6 7/12/7
f 6/13/6 5/14/5 8/15/8 9/16/9
f 9/17/9 8/18/8 10/19/10 11/20/11
f 11/20/11 10/19/10 12/21/12 13/22/13
f 14/23/14 11/24/11 13/25/13 15/26/15
f 13/22/13 12/21/12 16/27/16 17/28/17
f 15/26/15 13/25/13 17/29/17
f 2/30/2 7/31/7 18/32/2 3/33/3
f 7/34/7 19/35/18 20/36/19 18/37/2
f 19/38/18 14/39/14 21/40/20 20/41/19
f 14/39/14 15/42/15 22/43/21 21/40/20
f 15/42/15 17/28/17 16/27/16 22/43/21
f 4/4/4 3/3/3 23/44/22 24/45/23
f 5/46/5 4/47/4 24/48/23 25/49/24
f 3/50/3 18/51/2 26/52/25 23/53/22
f 8/15/8 5/14/5 25/54/24 27/55/26
f 18/37/2 20/36/19 28/56/27 26/57/25
f 10/58/10 8/59/8 27/60/26 29/61/28
f 20/62/19 21/63/20 30/64/29 28/65/27
f 12/66/12 10/58/10 29/61/28 31/67/30
f 21/63/20 22/68/21 32/69/31 30/64/29
f 16/70/16 12/66/12 31/67/30 33/71/32
f 22/68/21 16/70/16 33/71/32 32/69/31
f 30/72/29 32/73/31 31/74/30 29/75/28
f 23/76/22 26/77/25 25/78/24 24/79/23
f 31/74/30 32/73/31 33/80/32
f 11/24/11 6/81/6 9/82/9
f 19/83/18 7/84/7 14/23/14
f 6/81/6 11/24/11 14/23/14 7/84/7
f 30/72/29 26/85/25 28/86/27
f 27/87/26 25/88/24 29/75/28
f 29/75/28 25/88/24 26/85/25 30/72/29

# 34 faces
