# Wavefront Obj file
# 
# verts: 22 uv-s: 56
mtllib M_DWS.mtl

g Defensive_Wall___Straight
#pivot 0.000000 0.000000 0.000000

v -73.250298 0.000000 13.013400
v -73.250298 0.000000 -13.013400
v 73.250298 0.000000 -13.013400
v 73.250298 0.000000 13.013400
v 73.250298 81.038101 13.013400
v -73.250298 81.038101 13.013400
v 73.250298 81.038101 -13.013400
v -73.250298 81.038101 -13.013400
v 73.250298 81.038101 19.020700
v -73.250298 81.038101 19.020700
v -73.250298 81.038101 -19.020700
v 73.250298 81.038101 -19.020700
v 73.250298 86.301697 10.360200
v -73.250298 86.301697 10.360200
v -73.250298 86.301697 -10.360200
v 73.250298 86.301697 -10.360200
v 73.250298 91.474701 3.484700
v -73.250298 91.474701 3.484700
v -73.250298 91.474701 -3.484700
v 73.250298 91.474701 -3.484700
v 73.250298 94.497101 0.000000
v -73.250298 94.497101 0.000000
# 22 positions

vt 0.662051 0.500002
vt 0.662051 0.615822
vt 0.010120 0.615822
vt 0.010119 0.500002
vt 0.010000 0.629379
vt 0.661930 0.629379
vt 0.661930 0.990000
vt 0.010000 0.990000
vt 0.492758 0.347138
vt 0.492758 0.462958
vt 0.132135 0.462958
vt 0.132135 0.347138
vt 0.010000 0.629379
vt 0.661930 0.629379
vt 0.661930 0.990000
vt 0.010000 0.990000
vt 0.492758 0.347138
vt 0.492758 0.462958
vt 0.132135 0.462958
vt 0.132135 0.347138
vt 0.932974 0.338066
vt 0.932974 0.989996
vt 0.906242 0.989997
vt 0.906242 0.338067
vt 0.671679 0.990000
vt 0.671679 0.338069
vt 0.698411 0.338069
vt 0.698412 0.990000
vt 0.861143 0.989998
vt 0.861143 0.338068
vt 0.743510 0.338069
vt 0.743511 0.990000
vt 0.822854 0.989999
vt 0.822854 0.338068
vt 0.781799 0.338069
vt 0.781800 0.990000
vt 0.859890 0.268585
vt 0.767684 0.268585
vt 0.798280 0.245565
vt 0.829294 0.245565
vt 0.859890 0.268585
vt 0.767684 0.268585
vt 0.798280 0.245565
vt 0.829294 0.245565
vt 0.802327 0.989999
vt 0.802327 0.338069
vt 0.813786 0.232115
vt 0.813786 0.232115
vt 0.755877 0.292008
vt 0.729144 0.292008
vt 0.898429 0.292008
vt 0.871697 0.292008
vt 0.755877 0.292008
vt 0.729144 0.292008
vt 0.898429 0.292008
vt 0.871697 0.292008
# 56 texture coordinates

vn -0.166778 -0.301501 0.938766
vn -0.166778 -0.301501 -0.938766
vn 0.166778 -0.301501 -0.938766
vn 0.166778 -0.301501 0.938766
vn 0.187925 -0.072609 0.979496
vn -0.187925 -0.072609 0.979496
vn 0.187925 -0.072609 -0.979496
vn -0.187925 -0.072609 -0.979496
vn 0.036592 0.449815 0.892372
vn -0.036592 0.449815 0.892372
vn -0.036592 0.449815 -0.892372
vn 0.036592 0.449815 -0.892372
vn 0.090034 0.826719 0.555364
vn -0.090034 0.826719 0.555364
vn -0.090034 0.826719 -0.555364
vn 0.090034 0.826719 -0.555364
vn 0.029501 0.783941 0.620134
vn -0.029501 0.783941 0.620134
vn -0.029501 0.783941 -0.620134
vn 0.029501 0.783941 -0.620134
vn 0.020626 0.999787 -0.000000
vn -0.020626 0.999787 -0.000000
# 22 normals

usemtl wire_138008110
f 1/1/1 2/2/2 3/3/3 4/4/4
f 1/5/1 4/6/4 5/7/5 6/8/6
f 4/9/4 3/10/3 7/11/7 5/12/5
f 3/13/3 2/14/2 8/15/8 7/16/7
f 2/17/2 1/18/1 6/19/6 8/20/8
f 6/21/6 5/22/5 9/23/9 10/24/10
f 7/25/7 8/26/8 11/27/11 12/28/12
f 10/24/10 9/23/9 13/29/13 14/30/14
f 12/28/12 11/27/11 15/31/15 16/32/16
f 14/30/14 13/29/13 17/33/17 18/34/18
f 16/32/16 15/31/15 19/35/19 20/36/20
f 13/37/13 16/38/16 20/39/20 17/40/17
f 15/41/15 14/42/14 18/43/18 19/44/19
f 18/34/18 17/33/17 21/45/21 22/46/22
f 20/36/20 19/35/19 22/46/22 21/45/21
f 17/40/17 20/39/20 21/47/21
f 19/44/19 18/43/18 22/48/22
f 16/38/16 7/49/7 12/50/12
f 9/51/9 5/52/5 13/37/13
f 7/49/7 16/38/16 13/37/13 5/52/5
f 14/42/14 6/53/6 10/54/10
f 11/55/11 8/56/8 15/41/15
f 6/53/6 14/42/14 15/41/15 8/56/8

# 23 faces
