# Wavefront Obj file
# 
# verts: 20 uv-s: 38
mtllib M_EStairsRS.mtl

g Stair_Rail_Straight
#pivot 0.000000 0.000000 0.000000

v 3.624400 121.472504 67.635902
v 3.624400 44.780300 67.635902
v 3.624400 44.780300 -67.635902
v 3.624400 121.472504 -67.635902
v -3.624400 121.472504 67.635902
v -4.905500 123.533600 67.635902
v -4.905500 123.533600 -67.635902
v -3.624400 121.472504 -67.635902
v 4.905500 123.533600 67.635902
v 4.905500 123.533600 -67.635902
v -4.905500 125.826797 67.635902
v -4.905500 125.826797 -67.635902
v 4.905500 125.826797 67.635902
v 4.905500 125.826797 -67.635902
v -3.388100 127.804497 67.635902
v -3.388100 127.804497 -67.635902
v 3.388000 127.804497 67.635902
v 3.388000 127.804497 -67.635902
v -3.624400 44.780300 67.635902
v -3.624400 44.780300 -67.635902
# 20 positions

vt 0.965078 0.726324
vt 0.965078 0.990000
vt 0.500000 0.990000
vt 0.500000 0.726324
vt 0.496848 0.642070
vt 0.496848 0.650413
vt 0.031770 0.650413
vt 0.031770 0.642070
vt 0.496847 0.706620
vt 0.496847 0.714963
vt 0.031770 0.714963
vt 0.031770 0.706620
vt 0.496848 0.658298
vt 0.031770 0.658298
vt 0.496848 0.698735
vt 0.031770 0.698735
vt 0.496848 0.666868
vt 0.031770 0.666868
vt 0.496848 0.690165
vt 0.031770 0.690165
vt 0.010000 0.990000
vt 0.010000 0.726324
vt 0.475078 0.726324
vt 0.475078 0.990000
vt 0.503647 0.695382
vt 0.503647 0.661651
vt 0.511531 0.695382
vt 0.511532 0.661651
vt 0.518618 0.690978
vt 0.518618 0.666056
vt 0.990000 0.726324
vt 0.990000 0.990000
vt 0.024971 0.695382
vt 0.024970 0.661651
vt 0.017086 0.695382
vt 0.010000 0.690978
vt 0.010000 0.666056
vt 0.017086 0.661651
# 38 texture coordinates

vn 0.998436 -0.016242 0.053503
vn 0.998567 -0.000000 0.053510
vn 0.998567 -0.000000 -0.053510
vn 0.998436 -0.016242 -0.053503
vn -0.998436 -0.016242 0.053503
vn -0.957026 -0.281572 0.069411
vn -0.957026 -0.281572 -0.069411
vn -0.998436 -0.016242 -0.053503
vn 0.957026 -0.281572 0.069411
vn 0.957026 -0.281572 -0.069411
vn -0.940101 0.334007 0.068184
vn -0.940101 0.334007 -0.068184
vn 0.940094 0.334027 0.068183
vn 0.940094 0.334027 -0.068183
vn -0.231944 0.972660 0.011619
vn -0.231944 0.972660 -0.011619
vn 0.231941 0.972660 0.011619
vn 0.231941 0.972660 -0.011619
vn -0.998567 -0.000000 0.053510
vn -0.998567 -0.000000 -0.053510
# 20 normals

usemtl wire_184155229
f 1/1/1 2/2/2 3/3/3 4/4/4
f 5/5/5 6/6/6 7/7/7 8/8/8
f 9/9/9 1/10/1 4/11/4 10/12/10
f 6/6/6 11/13/11 12/14/12 7/7/7
f 13/15/13 9/9/9 10/12/10 14/16/14
f 11/13/11 15/17/15 16/18/16 12/14/12
f 17/19/17 13/15/13 14/16/14 18/20/18
f 15/17/15 17/19/17 18/20/18 16/18/16
f 19/21/19 5/22/5 8/23/8 20/24/20
f 13/25/13 17/19/17 15/17/15 11/26/11
f 9/27/9 13/25/13 11/26/11 6/28/6
f 1/29/1 9/27/9 6/28/6 5/30/5
f 2/2/2 1/1/1 5/31/5 19/32/19
f 18/20/18 14/33/14 12/34/12 16/18/16
f 4/4/4 3/3/3 20/24/20 8/23/8
f 10/35/10 4/36/4 8/37/8 7/38/7
f 14/33/14 10/35/10 7/38/7 12/34/12

# 17 faces
