# Wavefront Obj file
# 
# verts: 33 uv-s: 88
mtllib M_DW45.mtl

g Defensive_Wall___45_D_Corner
#pivot 0.000000 0.000000 0.000000

v -90.089699 0.000000 12.179901
v -90.089699 0.000000 -13.846901
v 12.792900 0.000000 -13.787201
v 21.786900 0.000000 12.120201
v 21.786900 81.038101 12.120201
v -90.089699 81.038101 12.179901
v -90.089699 81.038101 -13.846901
v 12.792900 81.038101 -13.787201
v 23.862801 81.038101 18.099800
v -90.089699 81.038101 18.187202
v -90.089699 81.038101 -19.854099
v 10.717000 81.038101 -19.766800
v 20.870001 86.301697 9.479099
v -90.089699 86.301697 9.526699
v -90.089699 86.301697 -11.193699
v 13.709700 86.301697 -11.146099
v 18.494101 91.474701 2.635201
v -90.089699 91.474701 2.651199
v -90.089699 91.474701 -4.318199
v 16.085699 91.474701 -4.302200
v 17.289900 94.497101 -0.833500
v -90.089699 94.497101 -0.833500
v 65.711304 -0.088402 -77.076897
v 85.518097 -0.088402 -65.116096
v 85.518097 80.949699 -65.116096
v 65.711304 80.949699 -77.076897
v 90.089699 80.949699 -62.355499
v 61.139801 80.949699 -79.837502
v 83.498901 86.213303 -66.335403
v 67.730499 86.213303 -75.857498
v 78.266602 91.386398 -69.495102
v 72.962799 91.386299 -72.697899
v 75.614700 94.408699 -71.096497
# 33 positions

vt 0.605880 0.108402
vt 0.678911 0.140547
vt 0.551674 0.429162
vt 0.467869 0.422401
vt 0.010000 0.741554
vt 0.352991 0.741554
vt 0.352991 0.990000
vt 0.010000 0.990000
vt 0.485943 0.483934
vt 0.485943 0.732381
vt 0.170526 0.732381
vt 0.170526 0.483934
vt 0.089793 0.732381
vt 0.010000 0.732381
vt 0.010000 0.483934
vt 0.089793 0.483934
vt 0.782674 0.982485
vt 0.922470 0.669277
vt 0.941803 0.670948
vt 0.799488 0.990000
vt 0.525492 0.249984
vt 0.518567 0.267049
vt 0.232299 0.150583
vt 0.233295 0.131203
vt 0.777131 0.267121
vt 0.777131 0.616475
vt 0.746159 0.607321
vt 0.746061 0.267141
vt 0.633949 0.267210
vt 0.665019 0.267192
vt 0.665332 0.585420
vt 0.634361 0.576263
vt 0.719853 0.600054
vt 0.719682 0.267158
vt 0.691398 0.267176
vt 0.691638 0.592688
vt 0.114498 0.706551
vt 0.114498 0.643027
vt 0.130357 0.664106
vt 0.130357 0.685472
vt 0.705746 0.596371
vt 0.705540 0.267167
vt 0.139623 0.674789
vt 0.663905 0.655820
vt 0.605880 0.696625
vt 0.361434 0.990000
vt 0.361654 0.741554
vt 0.668649 0.741554
vt 0.668430 0.990000
vt 0.391291 0.226885
vt 0.391557 0.475331
vt 0.138635 0.475331
vt 0.138369 0.226885
vt 0.786042 0.394262
vt 0.799488 0.384922
vt 0.019804 0.263097
vt 0.010000 0.249984
vt 0.685084 0.133214
vt 0.670523 0.104385
vt 0.990000 0.104385
vt 0.986565 0.132771
vt 0.734547 0.238159
vt 0.719968 0.209340
vt 0.978399 0.207965
vt 0.974985 0.236354
vt 0.696643 0.157936
vt 0.983839 0.157169
vt 0.708380 0.184630
vt 0.981096 0.183565
vt 0.702503 0.171287
vt 0.982458 0.170366
vt 0.114498 0.706551
vt 0.130357 0.685472
vt 0.130357 0.664106
vt 0.114498 0.643027
vt 0.676072 0.990000
vt 0.676072 0.741554
vt 0.747008 0.741554
vt 0.747008 0.990000
vt 0.139623 0.674789
vt 0.098361 0.714686
vt 0.098361 0.733102
vt 0.098361 0.616475
vt 0.098361 0.634893
vt 0.098361 0.634893
vt 0.098361 0.616475
vt 0.098361 0.733102
vt 0.098361 0.714686
# 88 texture coordinates

vn -0.215781 -0.298580 0.929671
vn -0.233654 -0.297320 -0.925747
vn -0.356410 -0.320171 -0.877760
vn 0.381596 -0.319625 0.867309
vn 0.401615 -0.077620 0.912513
vn -0.242551 -0.071719 0.967484
vn -0.262350 -0.071336 -0.962332
vn -0.374949 -0.077768 -0.923778
vn 0.360899 0.467715 0.806842
vn -0.046340 0.449633 0.892011
vn -0.052368 0.449499 -0.891745
vn -0.325446 0.468737 -0.821201
vn 0.216110 0.842456 0.493524
vn -0.118281 0.824263 0.553714
vn -0.126315 0.823440 -0.553165
vn -0.203626 0.842856 -0.498127
vn 0.237223 0.798978 0.552593
vn -0.039698 0.783664 0.619915
vn -0.040597 0.783636 -0.619893
vn -0.232111 0.799155 -0.554505
vn 0.000465 1.000000 -0.000161
vn -0.028136 0.999604 -0.000000
vn -0.558073 -0.253040 -0.790269
vn 0.862778 -0.273623 0.425140
vn 0.903181 -0.065403 0.424248
vn -0.560159 -0.059745 -0.826228
vn 0.733983 0.407440 0.543380
vn -0.660817 0.400545 -0.634732
vn 0.537420 0.797122 0.275274
vn -0.377551 0.774703 -0.507239
vn 0.540109 0.745962 0.389644
vn -0.487028 0.738977 -0.465528
vn 0.017785 0.999407 -0.029483
# 33 normals

usemtl wire_138008110
f 1/1/1 2/2/2 3/3/3 4/4/4
f 1/5/1 4/6/4 5/7/5 6/8/6
f 2/9/2 7/10/7 8/11/8 3/12/3
f 2/13/2 1/14/1 6/15/6 7/16/7
f 6/17/6 5/18/5 9/19/9 10/20/10
f 7/21/7 11/22/11 12/23/12 8/24/8
f 10/25/10 9/26/9 13/27/13 14/28/14
f 11/29/11 15/30/15 16/31/16 12/32/12
f 14/28/14 13/27/13 17/33/17 18/34/18
f 15/30/15 19/35/19 20/36/20 16/31/16
f 15/37/15 14/38/14 18/39/18 19/40/19
f 18/34/18 17/33/17 21/41/21 22/42/22
f 19/35/19 22/42/22 21/41/21 20/36/20
f 19/40/19 18/39/18 22/43/22
f 4/4/4 3/3/3 23/44/23 24/45/24
f 5/46/5 4/47/4 24/48/24 25/49/25
f 3/50/3 8/51/8 26/52/26 23/53/23
f 9/19/9 5/18/5 25/54/25 27/55/27
f 8/24/8 12/23/12 28/56/28 26/57/26
f 13/58/13 9/59/9 27/60/27 29/61/29
f 12/62/12 16/63/16 30/64/30 28/65/28
f 17/66/17 13/58/13 29/61/29 31/67/31
f 16/63/16 20/68/20 32/69/32 30/64/30
f 21/70/21 17/66/17 31/67/31 33/71/33
f 20/68/20 21/70/21 33/71/33 32/69/32
f 30/72/30 32/73/32 31/74/31 29/75/29
f 23/76/23 26/77/26 25/78/25 24/79/24
f 31/74/31 32/73/32 33/80/33
f 30/72/30 26/81/26 28/82/28
f 27/83/27 25/84/25 29/75/29
f 29/75/29 25/84/25 26/81/26 30/72/30
f 14/38/14 6/85/6 10/86/10
f 11/87/11 7/88/7 15/37/15
f 6/85/6 14/38/14 15/37/15 7/88/7

# 34 faces
