# Wavefront Obj file
# 
# verts: 12 uv-s: 16
mtllib M_EStairsW.mtl

g Stair_Wall
#pivot 0.000000 0.000000 0.000000

v -10.213300 -31.689201 67.635902
v -10.213300 45.002998 67.635902
v -10.213300 45.002998 -67.635902
v -10.213300 -31.689201 -67.635902
v 10.213300 38.712700 58.425098
v 10.213300 -27.826599 58.425098
v 10.213300 -27.826599 -58.425098
v 10.213300 38.712700 -58.425098
v 4.504900 45.002998 67.635902
v 4.504900 45.002998 -67.635902
v 4.504900 -31.689201 -67.635902
v 4.504900 -31.689201 67.635902
# 12 positions

vt 0.887739 0.016487
vt 0.885809 0.457047
vt 0.101964 0.453682
vt 0.107044 0.010000
vt 0.828873 0.586426
vt 0.828333 0.952209
vt 0.164244 0.951927
vt 0.156866 0.586006
vt 0.887460 0.541266
vt 0.095719 0.539537
vt 0.022579 0.990000
vt 0.010000 0.546077
vt 0.105074 0.988773
vt 0.972492 0.543472
vt 0.974969 0.987956
vt 0.889919 0.990000
# 16 texture coordinates

vn -0.994133 -0.000000 0.108166
vn -0.976519 0.187406 0.106250
vn -0.976519 0.187406 -0.106250
vn -0.994133 -0.000000 -0.108166
vn 0.996479 0.072857 0.041488
vn 0.996251 -0.075178 0.042810
vn 0.996251 -0.075178 -0.042810
vn 0.996479 0.072857 -0.041488
vn 0.440219 0.781090 0.442838
vn 0.440219 0.781090 -0.442838
vn 0.575448 -0.361586 -0.733563
vn 0.575448 -0.361586 0.733563
# 12 normals

usemtl wire_184155229
f 1/1/1 2/2/2 3/3/3 4/4/4
f 5/5/5 6/6/6 7/7/7 8/8/8
f 9/9/9 10/10/10 3/3/3 2/2/2
f 4/11/4 3/12/3 10/10/10 11/13/11
f 2/14/2 1/15/1 12/16/12 9/9/9
f 7/7/7 11/13/11 10/10/10 8/8/8
f 5/5/5 9/9/9 12/16/12 6/6/6
f 8/8/8 10/10/10 9/9/9 5/5/5
f 6/6/6 12/16/12 11/13/11 7/7/7

# 9 faces
