# Wavefront Obj file
# 
# verts: 72 uv-s: 126
mtllib M_Gate.mtl

g Gate
#pivot 0.000000 0.000000 0.000000

v -29.405399 6.118500 -1.711000
v 29.405399 6.118500 -1.711000
v 29.405399 6.118500 1.711000
v -29.405399 6.118500 1.711000
v -29.405399 62.457802 1.711000
v 29.405399 62.457802 1.711000
v 29.405399 62.457802 -1.711000
v -29.405399 62.457802 -1.711000
v 31.199900 4.650299 1.711000
v 31.199900 4.650299 -1.711000
v 31.199900 63.925999 -1.711000
v 31.199900 63.925999 1.711000
v -31.199900 4.650299 -1.711000
v -31.199900 4.650299 1.711000
v -31.199900 63.925999 1.711000
v -31.199900 63.925999 -1.711000
v -29.405399 66.546997 1.711000
v -31.199900 66.546997 1.711000
v 31.199900 66.546997 -1.711000
v 31.199900 66.546997 1.711000
v 29.405399 66.546997 -1.711000
v -31.199900 66.546997 -1.711000
v 29.405399 66.546997 1.711000
v -29.405399 66.546997 -1.711000
v -29.405399 68.730301 1.711000
v -31.199900 68.730301 1.711000
v 31.199900 68.730301 -1.711000
v 31.199900 68.730301 1.711000
v 29.405399 68.730301 -1.711000
v -31.199900 68.730301 -1.711000
v 29.405399 68.730301 1.711000
v -29.405399 68.730301 -1.711000
v -31.199900 1.518002 -1.711000
v -31.199900 1.518002 1.711000
v -29.405399 1.518002 -1.711000
v 31.199900 1.518002 1.711000
v 31.199900 1.518002 -1.711000
v 29.405399 1.518002 1.711000
v 29.405399 1.518002 -1.711000
v -29.405399 1.518002 1.711000
v -31.199900 -0.280399 -1.711000
v -31.199900 -0.280399 1.711000
v -29.405399 -0.280399 -1.711000
v 31.199900 -0.280399 1.711000
v 31.199900 -0.280399 -1.711000
v 29.405399 -0.280399 1.711000
v 29.405399 -0.280399 -1.711000
v -29.405399 -0.280399 1.711000
# 48 positions

vt 0.472248 0.753558
vt 0.472314 0.534270
vt 0.485074 0.534274
vt 0.485008 0.753559
vt 0.443526 0.740216
vt 0.443372 0.520932
vt 0.456132 0.520923
vt 0.456285 0.740212
vt 0.312226 0.738798
vt 0.312293 0.958098
vt 0.102220 0.958098
vt 0.102168 0.738796
vt 0.414684 0.028368
vt 0.427446 0.028421
vt 0.426214 0.249459
vt 0.413441 0.249371
vt 0.102168 0.738796
vt 0.102220 0.958098
vt 0.312293 0.958098
vt 0.312226 0.738798
vt 0.425712 0.738877
vt 0.412937 0.738919
vt 0.412108 0.517906
vt 0.424846 0.517863
vt 0.317777 0.964784
vt 0.096746 0.964789
vt 0.096692 0.732106
vt 0.317700 0.732107
vt 0.096746 0.964789
vt 0.317777 0.964784
vt 0.317700 0.732107
vt 0.096692 0.732106
vt 0.086925 0.738806
vt 0.086920 0.732114
vt 0.426211 0.259258
vt 0.413429 0.259173
vt 0.329376 0.738809
vt 0.329382 0.732118
vt 0.412122 0.508154
vt 0.424874 0.508137
vt 0.086971 0.964779
vt 0.086973 0.958089
vt 0.329481 0.964804
vt 0.329446 0.958106
vt 0.456122 0.990000
vt 0.443362 0.989991
vt 0.443373 0.974744
vt 0.456132 0.974753
vt 0.456286 0.755463
vt 0.443526 0.755460
vt 0.078785 0.738811
vt 0.078779 0.732120
vt 0.426148 0.267405
vt 0.413454 0.267310
vt 0.336082 0.738806
vt 0.336085 0.732117
vt 0.412113 0.499996
vt 0.424998 0.500039
vt 0.078830 0.964778
vt 0.078832 0.958088
vt 0.336207 0.964766
vt 0.336143 0.958078
vt 0.412175 0.493259
vt 0.424866 0.493343
vt 0.426203 0.274074
vt 0.413402 0.273976
vt 0.425767 0.750568
vt 0.413027 0.750621
vt 0.086973 0.958089
vt 0.086971 0.964779
vt 0.414730 0.016699
vt 0.427491 0.016725
vt 0.329446 0.958106
vt 0.329481 0.964804
vt 0.086920 0.732114
vt 0.086925 0.738806
vt 0.329382 0.732118
vt 0.329376 0.738809
vt 0.472319 0.517117
vt 0.485079 0.517120
vt 0.485007 0.770711
vt 0.472248 0.770713
vt 0.425823 0.757270
vt 0.413075 0.757333
vt 0.078832 0.958088
vt 0.078830 0.964778
vt 0.414735 0.010000
vt 0.427493 0.010015
vt 0.336143 0.958078
vt 0.336207 0.964766
vt 0.078779 0.732120
vt 0.078785 0.738811
vt 0.336085 0.732117
vt 0.336082 0.738806
vt 0.425909 0.763946
vt 0.413134 0.764019
vt 0.414731 0.990000
vt 0.414684 0.983309
vt 0.427442 0.983219
vt 0.427490 0.989910
vt 0.485076 0.989996
vt 0.472316 0.990000
# 102 texture coordinates

vn 0.008294 -0.112269 -0.993643
vn -0.008294 -0.112269 -0.993643
vn -0.008294 -0.112269 0.993643
vn 0.008294 -0.112269 0.993643
vn 0.008348 0.112999 0.993560
vn -0.008348 0.112999 0.993560
vn -0.008348 0.112999 -0.993560
vn 0.008348 0.112999 -0.993560
vn 0.885616 -0.000000 0.464418
vn 0.885616 -0.000000 -0.464418
vn -0.885616 -0.000000 -0.464418
vn -0.885616 -0.000000 0.464418
vn -0.000000 0.843028 0.537869
vn -0.716014 0.588506 0.375479
vn 0.716014 0.588506 -0.375479
vn 0.716014 0.588506 0.375479
vn -0.000000 0.843028 -0.537869
vn -0.716014 0.588506 -0.375479
vn -0.663626 -0.662187 -0.348006
vn -0.663626 -0.662187 0.348006
vn -0.000000 -0.885201 -0.465209
vn 0.663626 -0.662187 0.348006
vn 0.663626 -0.662187 -0.348006
vn -0.000000 -0.885201 0.465209
# 24 normals

usemtl wire_028089177
f 1/1/1 2/2/2 3/3/3 4/4/4
f 5/5/5 6/6/6 7/7/7 8/8/8
f 4/9/4 3/10/3 6/11/6 5/12/5
f 9/13/9 10/14/10 11/15/10 12/16/9
f 2/17/2 1/18/1 8/19/8 7/20/7
f 13/21/11 14/22/12 15/23/12 16/24/11
f 3/10/3 9/25/9 12/26/9 6/11/6
f 5/12/5 15/27/12 14/28/12 4/9/4
f 1/18/1 13/29/11 16/30/11 8/19/8
f 7/20/7 11/31/10 10/32/10 2/17/2
f 15/27/12 5/12/5 17/33/4 18/34/12
f 12/16/9 11/15/10 19/35/10 20/36/9
f 11/31/10 7/20/7 21/37/2 19/38/10
f 16/24/11 15/23/12 18/39/12 22/40/11
f 6/11/6 12/26/9 20/41/9 23/42/3
f 8/19/8 16/30/11 22/43/11 24/44/1
f 7/45/7 6/46/6 23/47/3 21/48/2
f 5/5/5 8/8/8 24/49/1 17/50/4
f 18/34/12 17/33/4 25/51/13 26/52/14
f 20/36/9 19/35/10 27/53/15 28/54/16
f 19/38/10 21/37/2 29/55/17 27/56/15
f 22/40/11 18/39/12 26/57/14 30/58/18
f 23/42/3 20/41/9 28/59/16 31/60/13
f 24/44/1 22/43/11 30/61/18 32/62/17
f 25/63/13 32/64/17 30/58/18 26/57/14
f 27/53/15 29/65/17 31/66/13 28/54/16
f 23/42/3 31/60/13 25/51/13 17/33/4
f 31/66/13 29/65/17 32/64/17 25/63/13
f 29/55/17 21/37/2 24/44/1 32/62/17
f 21/48/2 23/47/3 17/50/4 24/49/1
f 14/22/12 13/21/11 33/67/11 34/68/12
f 13/29/11 1/18/1 35/69/8 33/70/11
f 10/14/10 9/13/9 36/71/9 37/72/10
f 9/25/9 3/10/3 38/73/6 36/74/9
f 2/17/2 10/32/10 37/75/10 39/76/7
f 4/9/4 14/28/12 34/77/12 40/78/5
f 3/3/3 2/2/2 39/79/7 38/80/6
f 1/1/1 4/4/4 40/81/5 35/82/8
f 34/68/12 33/67/11 41/83/19 42/84/20
f 33/70/11 35/69/8 43/85/21 41/86/19
f 37/72/10 36/71/9 44/87/22 45/88/23
f 36/74/9 38/73/6 46/89/24 44/90/22
f 39/76/7 37/75/10 45/91/23 47/92/21
f 40/78/5 34/77/12 42/93/20 48/94/24
f 41/83/19 43/95/21 48/96/24 42/84/20
f 44/97/22 46/98/24 47/99/21 45/100/23
f 39/76/7 47/92/21 43/85/21 35/69/8
f 47/99/21 46/98/24 48/96/24 43/95/21
f 46/89/24 38/73/6 40/78/5 48/94/24
f 38/101/6 39/102/7 35/82/8 40/81/5

g Accent_Top_2
#pivot 0.000000 0.000000 0.000000

v -30.784800 73.948997 0.000000
v -30.784800 68.215202 0.000000
v 30.784800 68.215202 0.000000
v 30.784800 73.948997 0.000000
# 4 positions

vt 0.010000 0.883303
vt 0.010000 0.792039
vt 0.990000 0.792039
vt 0.989999 0.883303
# 4 texture coordinates

vn -0.000000 -0.000000 1.000000
# 1 normals

usemtl wire_214228153
f 49/103/25 50/104/25 51/105/25 52/106/25

g Accent_Top
#pivot 0.000000 0.000000 0.000000

v -29.888201 67.022903 0.000000
v -29.888201 62.122200 0.000000
v 29.888201 62.122200 0.000000
v 29.888201 67.022903 0.000000
# 4 positions

vt 0.028775 0.622039
vt 0.028775 0.544035
vt 0.980232 0.544035
vt 0.980232 0.622039
# 4 texture coordinates

vn -0.000000 -0.000000 1.000000
# 1 normals

usemtl wire_214228153
f 53/107/26 54/108/26 55/109/26 56/110/26

g Accent_Bottom
#pivot 0.000000 0.000000 0.000000

v -29.888201 6.256199 0.000000
v -29.888201 1.355598 0.000000
v 29.888201 1.355598 0.000000
v 29.888201 6.256199 0.000000
# 4 positions

vt 0.022517 0.254977
vt 0.022517 0.176974
vt 0.973974 0.176974
vt 0.973974 0.254977
# 4 texture coordinates

vn -0.000000 -0.000000 1.000000
# 1 normals

usemtl wire_214228153
f 57/111/27 58/112/27 59/113/27 60/114/27

g Accent_Bottom001
#pivot 0.000000 0.000000 0.000000

v 29.888201 6.256199 -0.270600
v 29.888201 1.355598 -0.270600
v -29.888201 1.355598 -0.270600
v -29.888201 6.256199 -0.270600
# 4 positions

vt 0.022517 0.254977
vt 0.022517 0.176974
vt 0.973974 0.176974
vt 0.973974 0.254977
# 4 texture coordinates

vn -0.000000 -0.000000 -1.000000
# 1 normals

usemtl wire_214228153
f 61/115/28 62/116/28 63/117/28 64/118/28

g Accent_Top001
#pivot 0.000000 0.000000 0.000000

v 29.888201 67.022903 -0.270600
v 29.888201 62.122200 -0.270600
v -29.888201 62.122200 -0.270600
v -29.888201 67.022903 -0.270600
# 4 positions

vt 0.028775 0.622039
vt 0.028775 0.544035
vt 0.980232 0.544035
vt 0.980232 0.622039
# 4 texture coordinates

vn -0.000000 -0.000000 -1.000000
# 1 normals

usemtl wire_214228153
f 65/119/29 66/120/29 67/121/29 68/122/29

g Accent_Top_003
#pivot 0.000000 0.000000 0.000000

v 30.784800 73.948997 -0.270600
v 30.784800 68.215202 -0.270600
v -30.784800 68.215202 -0.270600
v -30.784800 73.948997 -0.270600
# 4 positions

vt 0.010000 0.883303
vt 0.010000 0.792039
vt 0.990000 0.792039
vt 0.989999 0.883303
# 4 texture coordinates

vn -0.000000 -0.000000 -1.000000
# 1 normals

usemtl wire_214228153
f 69/123/30 70/124/30 71/125/30 72/126/30

# 56 faces
