# Blender v2.93.0 OBJ File: 'SeedProjectile.blend'
# www.blender.org
mtllib SeedProjectile.mtl
o Cylinder
v -0.000000 -0.000000 -0.548150
v -0.000000 0.000000 1.035086
v -0.000000 0.341195 -0.466178
v -0.000000 0.135845 0.846062
v 0.295484 0.170598 -0.466178
v 0.117646 0.067923 0.846062
v 0.295484 -0.170598 -0.466178
v 0.117646 -0.067923 0.846062
v -0.000000 -0.341196 -0.466178
v -0.000000 -0.135845 0.846062
v -0.295484 -0.170598 -0.466178
v -0.117646 -0.067923 0.846062
v -0.295484 0.170598 -0.466178
v -0.117646 0.067923 0.846062
v -0.000000 0.403022 -0.125362
v -0.000000 0.290001 0.405615
v 0.251148 0.145000 0.405615
v 0.349027 0.201511 -0.125362
v 0.251148 -0.145001 0.405616
v 0.349027 -0.201511 -0.125362
v -0.000000 -0.290001 0.405615
v -0.000000 -0.403022 -0.125362
v -0.251148 -0.145000 0.405615
v -0.349027 -0.201511 -0.125362
v -0.251148 0.145000 0.405615
v -0.349027 0.201511 -0.125362
vt 0.786771 0.059706
vt 0.747580 0.185246
vt 0.680067 0.152973
vt 0.425592 0.755320
vt 0.492923 0.581205
vt 0.646279 0.623881
vt 0.603701 0.749420
vt 0.582509 0.375332
vt 0.706420 0.414229
vt 0.818486 0.188515
vt 0.797540 0.672123
vt 0.724887 0.793868
vt 0.842694 0.433535
vt 0.891898 0.158490
vt 0.999903 0.752642
vt 0.859473 0.940818
vt 0.999903 0.423597
vt 0.669852 0.006308
vt 0.551001 0.075926
vt 0.522276 0.000097
vt 0.000097 0.601944
vt 0.002097 0.372529
vt 0.218093 0.443860
vt 0.174889 0.577096
vt 0.240065 0.095838
vt 0.359673 0.231638
vt 0.604910 0.126818
vt 0.360028 0.512247
vt 0.294024 0.620755
vt 0.471230 0.317741
vt 0.174750 0.768413
vt 0.593316 0.945810
vn 0.0000 0.0000 1.0000
vn 0.7760 0.4480 0.4439
vn 0.0000 0.8961 0.4439
vn 0.0000 0.7926 -0.6098
vn 0.0000 0.9999 0.0143
vn 0.8659 0.4999 0.0143
vn 0.6864 0.3963 -0.6098
vn 0.0000 0.9643 0.2647
vn 0.8351 0.4822 0.2647
vn 0.7760 -0.4480 0.4439
vn 0.8659 -0.4999 0.0143
vn 0.6864 -0.3963 -0.6098
vn 0.8351 -0.4822 0.2647
vn 0.0000 -0.8961 0.4439
vn 0.0000 -0.9999 0.0143
vn 0.0000 -0.7926 -0.6098
vn 0.0000 -0.9643 0.2647
vn -0.7760 -0.4480 0.4439
vn -0.8659 -0.4999 0.0143
vn -0.6864 -0.3963 -0.6098
vn -0.8351 -0.4822 0.2647
vn -0.7760 0.4480 0.4439
vn -0.8659 0.4999 0.0143
vn -0.6864 0.3963 -0.6098
vn -0.8351 0.4822 0.2647
vn 0.0000 0.0000 -1.0000
usemtl None
s 1
f 2/1/1 6/2/2 4/3/3
f 3/4/4 15/5/5 18/6/6 5/7/7
f 15/5/5 16/8/8 17/9/9 18/6/6
f 2/1/1 8/10/10 6/2/2
f 5/7/7 18/6/6 20/11/11 7/12/12
f 18/6/6 17/9/9 19/13/13 20/11/11
f 2/1/1 10/14/14 8/10/10
f 7/12/12 20/11/11 22/15/15 9/16/16
f 20/11/11 19/13/13 21/17/17 22/15/15
f 2/18/1 12/19/18 10/20/14
f 9/21/16 22/22/15 24/23/19 11/24/20
f 22/22/15 21/25/17 23/26/21 24/23/19
f 2/18/1 14/27/22 12/19/18
f 11/24/20 24/23/19 26/28/23 13/29/24
f 24/23/19 23/26/21 25/30/25 26/28/23
f 2/18/1 4/3/3 14/27/22
f 13/29/24 26/28/23 15/5/5 3/4/4
f 26/28/23 25/30/25 16/8/8 15/5/5
f 4/3/3 6/2/2 17/9/9 16/8/8
f 13/29/24 3/4/4 1/31/26
f 14/27/22 4/3/3 16/8/8 25/30/25
f 11/24/20 13/29/24 1/31/26
f 12/19/18 14/27/22 25/30/25 23/26/21
f 9/21/16 11/24/20 1/31/26
f 10/20/14 12/19/18 23/26/21 21/25/17
f 7/12/12 9/16/16 1/32/26
f 8/10/10 10/14/14 21/17/17 19/13/13
f 5/7/7 7/12/12 1/32/26
f 6/2/2 8/10/10 19/13/13 17/9/9
f 3/4/4 5/7/7 1/32/26
