# Blender v2.93.0 OBJ File: 'Spear.blend'
# www.blender.org
mtllib SpearWholeLOW.mtl
o Spearshaft_Cylinder
v 0.000000 0.016828 0.000000
v 0.021071 0.025759 0.000000
v 0.021071 1.055848 0.000000
v 0.010536 0.025759 0.018248
v 0.010536 1.055848 0.018248
v -0.010536 0.025759 0.018248
v -0.010536 1.055848 0.018248
v -0.021071 0.025759 0.000000
v -0.021071 1.055848 0.000000
v -0.010536 0.025759 -0.018248
v -0.010536 1.055848 -0.018248
v 0.010536 0.025759 -0.018248
v 0.010536 1.055848 -0.018248
v 0.028256 1.332579 0.000000
v 0.014128 1.332579 0.024470
v -0.014128 1.332579 0.024470
v -0.028256 1.332579 0.000000
v -0.014128 1.332579 -0.024470
v 0.014128 1.332579 -0.024470
v 0.011866 1.810069 0.010402
v 0.011866 1.810069 -0.010402
v 0.026254 1.816023 0.000000
v 0.045495 1.434776 -0.010402
v 0.045495 1.434776 0.010402
v 0.072286 1.434776 0.000000
v 0.045495 1.700814 -0.010402
v 0.049960 1.528105 -0.010402
v 0.028777 1.466920 -0.010402
v 0.045495 1.700814 0.010402
v 0.049960 1.528105 0.010402
v 0.028777 1.466920 0.010402
v 0.066035 1.700814 0.000000
v 0.068714 1.526319 0.000000
v 0.043066 1.466920 0.000000
v 0.064785 1.614460 -0.010402
v 0.064785 1.614460 0.010402
v 0.087111 1.614460 0.000000
v 0.022512 1.400240 -0.010402
v 0.022512 1.400240 0.010402
v 0.029657 1.394882 0.000000
v 0.000000 1.332579 0.024470
v 0.000000 1.824215 0.010402
v -0.000000 1.332579 -0.024470
v 0.000000 1.824215 -0.010402
v -0.011866 1.810069 0.010402
v -0.011866 1.810069 -0.010402
v 0.000000 1.870735 0.000000
v -0.026254 1.816023 0.000000
v 0.000000 1.434776 0.010402
v 0.000000 1.434776 -0.010402
v -0.045495 1.434776 -0.010402
v -0.045495 1.434776 0.010402
v -0.072286 1.434776 0.000000
v 0.000000 1.657637 0.010402
v 0.000000 1.657637 -0.010402
v -0.045495 1.700814 -0.010402
v -0.049960 1.528105 -0.010402
v -0.028777 1.466920 -0.010402
v -0.045495 1.700814 0.010402
v -0.049960 1.528105 0.010402
v -0.028777 1.466920 0.010402
v -0.066035 1.700814 0.000000
v -0.068714 1.526319 0.000000
v -0.043066 1.466920 0.000000
v -0.064785 1.614460 -0.010402
v -0.064785 1.614460 0.010402
v -0.087111 1.614460 0.000000
v -0.022512 1.400240 -0.010402
v -0.022512 1.400240 0.010402
v -0.029657 1.394882 0.000000
v 0.021071 0.540803 0.000000
v 0.010536 0.540803 0.018248
v -0.010536 0.540803 0.018248
v -0.021071 0.540803 0.000000
v -0.010536 0.540803 -0.018248
v 0.010536 0.540803 -0.018248
vt 0.877585 0.872890
vt 0.852234 0.887526
vt 0.852234 0.858254
vt 0.770019 0.417684
vt 0.797704 0.419483
vt 0.778794 0.783465
vt 0.741671 0.781053
vt 0.698828 0.759111
vt 0.020709 0.759111
vt 0.020709 0.731367
vt 0.698828 0.731367
vt 0.877585 0.843617
vt 0.880907 0.420563
vt 0.908629 0.419483
vt 0.927538 0.783465
vt 0.908951 0.784189
vt 0.902936 0.858254
vt 0.825426 0.420563
vt 0.815968 0.784913
vt 0.797381 0.784189
vt 0.698828 0.703624
vt 0.020709 0.703624
vt 0.020709 0.675881
vt 0.698828 0.675881
vt 0.902936 0.887526
vt 0.853167 0.420923
vt 0.853166 0.785396
vt 0.020709 0.648139
vt 0.698828 0.648138
vt 0.877585 0.902163
vt 0.890365 0.784913
vt 0.936314 0.417684
vt 0.964661 0.781054
vt 0.698828 0.620395
vt 0.020709 0.620395
vt 0.020709 0.592652
vt 0.698828 0.592653
vt 0.103854 0.115666
vt 0.085496 0.131100
vt 0.022889 0.131052
vt 0.093690 0.093238
vt 0.302036 0.131266
vt 0.245696 0.071698
vt 0.236897 0.493156
vt 0.085779 0.441210
vt 0.095977 0.418798
vt 0.237752 0.462984
vt 0.077644 0.403336
vt 0.294183 0.403503
vt 0.015037 0.403288
vt 0.244888 0.041525
vt 0.646708 0.099197
vt 0.596943 0.070529
vt 0.595725 0.032638
vt 0.654970 0.082055
vt 0.638806 0.436102
vt 0.588997 0.464693
vt 0.590590 0.403731
vt 0.647042 0.453257
vt 0.587721 0.502583
vt 0.598443 0.131494
vt 0.553365 0.092744
vt 0.552676 0.068863
vt 0.470752 0.066009
vt 0.473584 0.037894
vt 0.358147 0.047033
vt 0.358075 0.014901
vt 0.545453 0.442412
vt 0.462799 0.469019
vt 0.350165 0.487822
vt 0.544727 0.466292
vt 0.465588 0.497139
vt 0.350043 0.519954
vt 0.738679 0.131602
vt 0.739112 0.113808
vt 0.728651 0.456546
vt 0.731233 0.421634
vt 0.730827 0.403838
vt 0.736585 0.078891
vt 0.103830 0.146562
vt 0.093632 0.168974
vt 0.245604 0.190748
vt 0.237035 0.313762
vt 0.237843 0.343934
vt 0.096001 0.387902
vt 0.085837 0.365475
vt 0.244750 0.220919
vt 0.646658 0.163866
vt 0.654894 0.181021
vt 0.595573 0.230347
vt 0.596849 0.192457
vt 0.638856 0.371433
vt 0.589090 0.342765
vt 0.647118 0.354291
vt 0.587873 0.304874
vt 0.552579 0.194056
vt 0.553305 0.170176
vt 0.473440 0.224903
vt 0.470651 0.196783
vt 0.358017 0.215586
vt 0.357896 0.247718
vt 0.545513 0.364980
vt 0.462899 0.338245
vt 0.350294 0.319269
vt 0.544823 0.341099
vt 0.465731 0.310130
vt 0.350222 0.287137
vt 0.739085 0.149398
vt 0.728732 0.351127
vt 0.731260 0.386044
vt 0.736503 0.184310
vt 0.698730 0.866229
vt 0.020606 0.866228
vt 0.020607 0.838484
vt 0.698730 0.838487
vt 0.020607 0.810741
vt 0.698730 0.810745
vt 0.698730 0.949456
vt 0.020606 0.949457
vt 0.020606 0.921714
vt 0.698730 0.921713
vt 0.698730 0.893971
vt 0.020606 0.893971
vt 0.698730 0.977199
vt 0.020607 0.977200
vn 0.0000 -1.0000 0.0000
vn 0.8753 -0.4835 0.0000
vn 0.4376 -0.4835 0.7580
vn 0.9999 -0.0130 0.0000
vn 0.5000 -0.0130 -0.8659
vn 0.5036 0.0334 -0.8632
vn 0.9998 -0.0175 0.0000
vn 1.0000 0.0000 0.0000
vn 0.5000 -0.0130 0.8659
vn 0.5000 0.0000 0.8660
vn -0.4376 -0.4835 0.7580
vn -0.5000 -0.0130 0.8659
vn 0.5036 0.0334 0.8632
vn 0.0000 0.0667 0.9977
vn -0.8753 -0.4835 0.0000
vn -0.5000 -0.0130 -0.8659
vn -0.5036 0.0334 -0.8632
vn 0.0000 0.0667 -0.9977
vn -0.5000 0.0000 0.8660
vn -0.9999 -0.0130 0.0000
vn -1.0000 0.0000 0.0000
vn -0.4376 -0.4835 -0.7580
vn -0.9998 -0.0175 0.0000
vn -0.5000 0.0000 -0.8660
vn 0.4376 -0.4835 -0.7580
vn -0.5036 0.0334 0.8632
vn 0.5000 0.0000 -0.8660
vn 0.2606 0.1141 -0.9586
vn 0.0000 0.1956 -0.9807
vn 0.0000 1.0000 0.0000
vn 0.9179 0.3968 0.0000
vn 0.0000 0.0000 -1.0000
vn 0.2450 0.0710 -0.9669
vn 0.9641 0.2653 0.0000
vn 0.2606 0.1141 0.9586
vn 0.2450 0.0710 0.9669
vn 0.0000 0.1956 0.9807
vn 0.0000 0.0000 1.0000
vn 0.3751 -0.0427 -0.9260
vn 0.3092 -0.0338 -0.9504
vn 0.9984 -0.0571 0.0000
vn 0.9640 -0.2660 0.0000
vn 0.3751 -0.0427 0.9260
vn 0.3092 -0.0338 0.9504
vn 0.0000 0.0291 0.9996
vn 0.0000 0.0291 -0.9996
vn 0.1916 0.0170 -0.9813
vn 0.9893 0.1461 0.0000
vn 0.2631 -0.0801 -0.9614
vn 0.9620 -0.2731 0.0000
vn 0.2537 0.0054 -0.9673
vn 0.9998 0.0162 0.0000
vn 0.1916 0.0170 0.9813
vn 0.2631 -0.0801 0.9614
vn 0.2537 0.0054 0.9673
vn -0.2606 0.1141 -0.9586
vn -0.9179 0.3968 0.0000
vn -0.2450 0.0710 -0.9669
vn -0.9641 0.2653 0.0000
vn -0.2450 0.0710 0.9669
vn -0.2606 0.1141 0.9586
vn -0.3751 -0.0427 -0.9260
vn -0.9640 -0.2660 0.0000
vn -0.9984 -0.0571 0.0000
vn -0.3092 -0.0338 -0.9504
vn -0.3751 -0.0427 0.9260
vn -0.3092 -0.0338 0.9504
vn -0.9893 0.1461 0.0000
vn -0.1916 0.0170 -0.9813
vn -0.9620 -0.2731 0.0000
vn -0.2631 -0.0801 -0.9614
vn -0.2537 0.0054 -0.9673
vn -0.9998 0.0162 0.0000
vn -0.1916 0.0170 0.9813
vn -0.2631 -0.0801 0.9614
vn -0.2537 0.0054 0.9673
usemtl None
s 1
f 1/1/1 2/2/2 4/3/3
f 3/4/4 13/5/5 19/6/6 14/7/7
f 71/8/8 3/9/4 5/10/9 72/11/10
f 1/1/1 4/3/3 6/12/11
f 7/13/12 5/14/9 15/15/13 41/16/14
f 1/1/1 6/12/11 8/17/15
f 13/5/5 11/18/16 18/19/17 43/20/18
f 73/21/19 7/22/12 9/23/20 74/24/21
f 1/1/1 8/17/15 10/25/22
f 11/18/16 9/26/20 17/27/23 18/19/17
f 74/24/21 9/23/20 11/28/16 75/29/24
f 1/1/1 10/25/22 12/30/25
f 9/26/20 7/13/12 16/31/26 17/27/23
f 72/11/10 5/10/9 7/22/12 73/21/19
f 1/1/1 12/30/25 2/2/2
f 5/14/9 3/32/4 14/33/7 15/15/13
f 76/34/27 13/35/5 3/36/4 71/37/8
f 21/38/28 44/39/29 47/40/30 22/41/31
f 55/42/32 44/39/29 21/38/28 26/43/33
f 32/44/34 22/45/31 20/46/35 29/47/36
f 29/47/36 20/46/35 42/48/37 54/49/38
f 22/45/31 47/50/30 42/48/37 20/46/35
f 26/43/33 21/38/28 22/41/31 32/51/34
f 38/52/39 23/53/40 25/54/41 40/55/42
f 39/56/43 24/57/44 49/58/45
f 40/59/42 25/60/41 24/57/44 39/56/43
f 50/61/46 23/53/40 38/52/39
f 23/53/40 28/62/47 34/63/48 25/54/41
f 28/62/47 27/64/49 33/65/50 34/63/48
f 35/66/51 26/43/33 32/51/34 37/67/52
f 24/57/44 31/68/53 49/58/45
f 31/68/53 30/69/54 54/49/38 49/58/45
f 36/70/55 29/47/36 54/49/38
f 25/60/41 34/71/48 31/68/53 24/57/44
f 34/71/48 33/72/50 30/69/54 31/68/53
f 37/73/52 32/44/34 29/47/36 36/70/55
f 50/61/46 28/62/47 23/53/40
f 50/61/46 55/42/32 27/64/49 28/62/47
f 55/42/32 26/43/33 35/66/51
f 55/42/32 35/66/51 27/64/49
f 33/72/50 37/73/52 36/70/55 30/69/54
f 30/69/54 36/70/55 54/49/38
f 27/64/49 35/66/51 37/67/52 33/65/50
f 43/74/18 50/61/46 38/52/39 19/75/6
f 14/76/7 40/59/42 39/56/43 15/77/13
f 15/77/13 39/56/43 49/58/45 41/78/14
f 19/75/6 38/52/39 40/55/42 14/79/7
f 46/80/56 48/81/57 47/40/30 44/39/29
f 55/42/32 56/82/58 46/80/56 44/39/29
f 62/83/59 59/84/60 45/85/61 48/86/57
f 59/84/60 54/49/38 42/48/37 45/85/61
f 13/5/5 43/20/18 19/6/6
f 48/86/57 45/85/61 42/48/37 47/50/30
f 7/13/12 41/16/14 16/31/26
f 56/82/58 62/87/59 48/81/57 46/80/56
f 68/88/62 70/89/63 53/90/64 51/91/65
f 69/92/66 49/58/45 52/93/67
f 70/94/63 69/92/66 52/93/67 53/95/64
f 50/61/46 68/88/62 51/91/65
f 51/91/65 53/90/64 64/96/68 58/97/69
f 58/97/69 64/96/68 63/98/70 57/99/71
f 65/100/72 67/101/73 62/87/59 56/82/58
f 52/93/67 49/58/45 61/102/74
f 61/102/74 49/58/45 54/49/38 60/103/75
f 66/104/76 54/49/38 59/84/60
f 53/95/64 52/93/67 61/102/74 64/105/68
f 64/105/68 61/102/74 60/103/75 63/106/70
f 67/107/73 66/104/76 59/84/60 62/83/59
f 50/61/46 51/91/65 58/97/69
f 50/61/46 58/97/69 57/99/71 55/42/32
f 55/42/32 65/100/72 56/82/58
f 55/42/32 57/99/71 65/100/72
f 63/106/70 60/103/75 66/104/76 67/107/73
f 60/103/75 54/49/38 66/104/76
f 57/99/71 63/98/70 67/101/73 65/100/72
f 43/74/18 18/108/17 68/88/62 50/61/46
f 17/109/23 16/110/26 69/92/66 70/94/63
f 16/110/26 41/78/14 49/58/45 69/92/66
f 18/108/17 17/111/23 70/89/63 68/88/62
f 75/29/24 11/28/16 13/35/5 76/34/27
f 10/112/22 75/113/24 76/114/27 12/115/25
f 12/115/25 76/114/27 71/116/8 2/117/2
f 4/118/3 72/119/10 73/120/19 6/121/11
f 8/122/15 74/123/21 75/113/24 10/112/22
f 6/121/11 73/120/19 74/123/21 8/122/15
f 2/124/2 71/125/8 72/119/10 4/118/3
