# Blender v2.93.0 OBJ File: 'Shield.blend'
# www.blender.org
mtllib Shield.mtl
o LowShield_Cylinder.002
v -0.000000 1.200000 0.070419
v -0.000000 1.263043 0.060645
v -0.000000 1.494017 0.022309
v -0.000000 1.473399 0.016001
v -0.000000 1.494017 0.039517
v -0.000000 1.229564 0.070419
v 0.112516 1.471637 0.022309
v 0.024126 1.258244 0.060645
v 0.104625 1.452588 0.016001
v 0.011314 1.227314 0.070419
v 0.112516 1.471637 0.039517
v 0.207902 1.407902 0.022309
v 0.044578 1.244578 0.060645
v 0.193323 1.393322 0.016001
v 0.020905 1.220905 0.070419
v 0.207902 1.407902 0.039517
v 0.271637 1.312515 0.022309
v 0.058245 1.224125 0.060645
v 0.252588 1.304625 0.016001
v 0.027314 1.211313 0.070419
v 0.271637 1.312515 0.039517
v 0.294018 1.200000 0.022309
v 0.063043 1.200000 0.060645
v 0.273400 1.200000 0.016001
v 0.029564 1.200000 0.070419
v 0.294018 1.200000 0.039517
v 0.271637 1.087484 0.022309
v 0.058245 1.175874 0.060645
v 0.252588 1.095374 0.016001
v 0.027314 1.188686 0.070419
v 0.271637 1.087484 0.039517
v 0.207902 0.992098 0.022309
v 0.044578 1.155421 0.060645
v 0.193323 1.006677 0.016001
v 0.020905 1.179095 0.070419
v 0.207902 0.992098 0.039517
v 0.112516 0.928363 0.022309
v 0.024126 1.141755 0.060645
v 0.104625 0.947412 0.016001
v 0.011314 1.172686 0.070419
v 0.112516 0.928363 0.039517
v -0.000000 0.905982 0.022309
v -0.000000 1.136956 0.060645
v -0.000000 0.926600 0.016001
v -0.000000 1.170436 0.070419
v -0.000000 0.905982 0.039517
v -0.112516 0.928363 0.022309
v -0.024126 1.141755 0.060645
v -0.104625 0.947412 0.016001
v -0.011314 1.172686 0.070419
v -0.112516 0.928363 0.039517
v -0.207902 0.992098 0.022309
v -0.044578 1.155421 0.060645
v -0.193323 1.006677 0.016001
v -0.020905 1.179095 0.070419
v -0.207902 0.992098 0.039517
v -0.271637 1.087484 0.022309
v -0.058245 1.175874 0.060645
v -0.252588 1.095374 0.016001
v -0.027314 1.188686 0.070419
v -0.271637 1.087484 0.039517
v -0.294018 1.200000 0.022309
v -0.063043 1.200000 0.060645
v -0.273400 1.200000 0.016001
v -0.029564 1.200000 0.070419
v -0.294018 1.200000 0.039517
v -0.271637 1.312515 0.022309
v -0.058245 1.224125 0.060645
v -0.252588 1.304625 0.016001
v -0.027314 1.211313 0.070419
v -0.271637 1.312515 0.039517
v -0.207902 1.407902 0.022309
v -0.044578 1.244578 0.060645
v -0.193323 1.393322 0.016001
v -0.020905 1.220905 0.070419
v -0.207902 1.407902 0.039517
v -0.112516 1.471637 0.022309
v -0.024126 1.258244 0.060645
v -0.104625 1.452588 0.016001
v -0.011314 1.227314 0.070419
v -0.112516 1.471637 0.039517
v -0.000000 1.200000 0.060837
v 0.058206 1.340520 0.061475
v -0.000000 1.352098 0.061475
v 0.107550 1.307550 0.061475
v 0.140521 1.258205 0.061475
v 0.152098 1.200000 0.061475
v 0.140521 1.141794 0.061475
v 0.107550 1.092450 0.061475
v 0.058206 1.059479 0.061475
v -0.000000 1.047901 0.061475
v -0.058206 1.059479 0.061475
v -0.107550 1.092450 0.061475
v -0.140521 1.141794 0.061475
v -0.152098 1.200000 0.061475
v -0.140521 1.258205 0.061475
v -0.107550 1.307550 0.061475
v -0.058206 1.340520 0.061475
v 0.093051 1.424646 0.052135
v 0.171937 1.371937 0.052135
v 0.224646 1.293051 0.052135
v 0.243155 1.200000 0.052135
v 0.224646 1.106948 0.052135
v 0.171937 1.028063 0.052135
v 0.093052 0.975354 0.052135
v -0.000000 0.956844 0.052135
v -0.093052 0.975354 0.052135
v -0.171937 1.028063 0.052135
v -0.224646 1.106948 0.052135
v -0.243155 1.200000 0.052135
v -0.224646 1.293051 0.052135
v -0.171937 1.371937 0.052135
v -0.093052 1.424646 0.052135
v -0.000000 1.443155 0.052135
v -0.000000 1.471975 0.024803
v 0.104081 1.451272 0.024803
v 0.192316 1.392316 0.024803
v 0.251273 1.304080 0.024803
v 0.271976 1.200000 0.024803
v 0.251273 1.095919 0.024803
v 0.192316 1.007684 0.024803
v 0.104081 0.948727 0.024803
v -0.000000 0.928024 0.024803
v -0.104081 0.948727 0.024803
v -0.192316 1.007684 0.024803
v -0.251273 1.095919 0.024803
v -0.271976 1.200000 0.024803
v -0.251273 1.304080 0.024803
v -0.192316 1.392316 0.024803
v -0.104081 1.451272 0.024803
vt 0.051376 0.135697
vt 0.065811 0.145210
vt 0.027737 0.244167
vt 0.010924 0.240920
vt 0.131532 0.055052
vt 0.141104 0.069527
vt 0.293621 0.295812
vt 0.316068 0.310823
vt 0.308614 0.318268
vt 0.298879 0.322292
vt 0.027787 0.349584
vt 0.010972 0.352807
vt 0.288348 0.322288
vt 0.278621 0.318254
vt 0.068236 0.447111
vt 0.053893 0.456541
vt 0.143077 0.521914
vt 0.133415 0.536139
vt 0.308632 0.273355
vt 0.316083 0.280812
vt 0.320113 0.290552
vt 0.240967 0.562446
vt 0.237480 0.579304
vt 0.347007 0.562432
vt 0.350240 0.579354
vt 0.320107 0.301091
vt 0.445034 0.521807
vt 0.454503 0.536212
vt 0.520088 0.446712
vt 0.534359 0.456401
vt 0.271174 0.310810
vt 0.267145 0.301084
vt 0.560698 0.348557
vt 0.577598 0.352046
vt 0.560641 0.242284
vt 0.577598 0.239037
vt 0.288348 0.269322
vt 0.298891 0.269320
vt 0.519886 0.144078
vt 0.534316 0.134582
vt 0.444595 0.068915
vt 0.454296 0.054608
vt 0.177658 0.218667
vt 0.216054 0.180042
vt 0.278611 0.273362
vt 0.271161 0.280818
vt 0.346189 0.028284
vt 0.349674 0.011337
vt 0.239620 0.028454
vt 0.236339 0.011443
vt 0.267138 0.290554
vt 0.923282 0.846189
vt 0.763442 0.738988
vt 0.772213 0.717402
vt 0.960907 0.755275
vt 0.107629 0.172471
vt 0.074938 0.253127
vt 0.947133 0.862218
vt 0.869629 0.939720
vt 0.858542 0.922870
vt 0.930440 0.850893
vt 0.075324 0.339484
vt 0.157073 0.268950
vt 0.768368 0.981664
vt 0.764573 0.961853
vt 0.108500 0.419517
vt 0.157209 0.323097
vt 0.658762 0.981664
vt 0.662837 0.961909
vt 0.169784 0.480951
vt 0.178001 0.373135
vt 0.557500 0.939720
vt 0.568825 0.923028
vt 0.249982 0.514330
vt 0.216336 0.411472
vt 0.479997 0.862217
vt 0.496848 0.851130
vt 0.336917 0.514492
vt 0.266442 0.432264
vt 0.438053 0.760955
vt 0.457865 0.757161
vt 0.417347 0.481354
vt 0.320717 0.432318
vt 0.438053 0.651350
vt 0.457809 0.655425
vt 0.479003 0.419923
vt 0.370908 0.411594
vt 0.479997 0.550088
vt 0.496689 0.561413
vt 0.512464 0.339532
vt 0.409366 0.373226
vt 0.557500 0.472585
vt 0.568588 0.489436
vt 0.512604 0.252415
vt 0.430219 0.323039
vt 0.658762 0.430641
vt 0.662557 0.450453
vt 0.479366 0.171844
vt 0.430273 0.268673
vt 0.768368 0.430641
vt 0.764293 0.450397
vt 0.417779 0.110107
vt 0.409501 0.218409
vt 0.869630 0.472586
vt 0.858305 0.489278
vt 0.337193 0.076646
vt 0.371051 0.179917
vt 0.947132 0.550088
vt 0.930282 0.561176
vt 0.249874 0.076629
vt 0.320771 0.159085
vt 0.989077 0.651350
vt 0.969265 0.655145
vt 0.169189 0.110178
vt 0.266329 0.159118
vt 0.989076 0.760956
vt 0.969321 0.756881
vt 0.713565 0.706153
vt 0.772051 0.694103
vt 0.724814 0.647505
vt 0.746401 0.656276
vt 0.701515 0.647666
vt 0.702316 0.764801
vt 0.680729 0.756030
vt 0.725615 0.764639
vt 0.654917 0.694904
vt 0.663688 0.673317
vt 0.655078 0.718203
vt 0.664140 0.739669
vt 0.747081 0.755577
vt 0.762990 0.672637
vt 0.680049 0.656728
vt 0.960877 0.656881
vt 0.923197 0.565990
vt 0.853601 0.496436
vt 0.762687 0.458811
vt 0.664293 0.458840
vt 0.573402 0.496521
vt 0.503848 0.566117
vt 0.466223 0.657031
vt 0.466252 0.755424
vt 0.503933 0.846316
vt 0.573529 0.915869
vt 0.664443 0.953495
vt 0.762837 0.953465
vt 0.853728 0.915785
vn 0.0000 0.8273 -0.5617
vn 0.0000 0.8136 0.5814
vn 0.3113 0.7517 0.5814
vn 0.3166 0.7643 -0.5617
vn -0.3166 0.7643 -0.5617
vn -0.3113 0.7517 0.5814
vn 0.0000 0.0000 1.0000
vn 0.0000 -0.0410 0.9991
vn 0.0157 -0.0378 0.9991
vn 0.0290 -0.0290 0.9991
vn 0.5753 0.5753 0.5814
vn 0.5850 0.5850 -0.5617
vn 0.0378 -0.0157 0.9991
vn 0.0410 0.0000 0.9991
vn 0.7517 0.3113 0.5814
vn 0.7643 0.3166 -0.5617
vn 0.8136 0.0000 0.5814
vn 0.8273 0.0000 -0.5617
vn -0.0410 0.0000 0.9991
vn -0.0378 -0.0157 0.9991
vn -0.0290 -0.0290 0.9991
vn 0.7517 -0.3113 0.5814
vn 0.7643 -0.3166 -0.5617
vn 0.5753 -0.5753 0.5814
vn 0.5850 -0.5850 -0.5617
vn -0.0157 -0.0378 0.9991
vn 0.3113 -0.7517 0.5814
vn 0.3166 -0.7643 -0.5617
vn 0.0000 -0.8136 0.5814
vn 0.0000 -0.8273 -0.5617
vn 0.0378 0.0157 0.9991
vn 0.0290 0.0290 0.9991
vn -0.3113 -0.7517 0.5814
vn -0.3166 -0.7643 -0.5617
vn -0.5753 -0.5753 0.5814
vn -0.5850 -0.5850 -0.5617
vn -0.0290 0.0290 0.9991
vn -0.0378 0.0157 0.9991
vn -0.7517 -0.3113 0.5814
vn -0.7643 -0.3166 -0.5617
vn -0.8136 0.0000 0.5814
vn -0.8273 0.0000 -0.5617
vn 0.0000 0.0892 0.9960
vn -0.0342 0.0824 0.9960
vn -0.0157 0.0378 0.9991
vn 0.0000 0.0410 0.9991
vn -0.7517 0.3113 0.5814
vn -0.7643 0.3166 -0.5617
vn -0.5753 0.5753 0.5814
vn -0.5850 0.5850 -0.5617
vn 0.0157 0.0378 0.9991
vn 0.0000 -0.7429 -0.6693
vn 0.0000 -0.0966 -0.9953
vn 0.0370 -0.0893 -0.9953
vn 0.2843 -0.6864 -0.6693
vn 0.0000 0.1803 0.9836
vn 0.0690 0.1666 0.9836
vn -0.1737 -0.4193 -0.8911
vn 0.0000 -0.4538 -0.8911
vn 0.1275 0.1275 0.9836
vn 0.0342 0.0824 0.9960
vn -0.3209 -0.3209 -0.8911
vn 0.1666 0.0690 0.9836
vn 0.0631 0.0631 0.9960
vn -0.4193 -0.1737 -0.8911
vn 0.1803 0.0000 0.9836
vn 0.0824 0.0342 0.9960
vn -0.4538 0.0000 -0.8911
vn 0.1666 -0.0690 0.9836
vn 0.0892 0.0000 0.9960
vn -0.4193 0.1737 -0.8911
vn 0.1275 -0.1275 0.9836
vn 0.0824 -0.0342 0.9960
vn -0.3209 0.3209 -0.8911
vn 0.0690 -0.1666 0.9836
vn 0.0631 -0.0631 0.9960
vn -0.1737 0.4193 -0.8911
vn 0.0000 -0.1803 0.9836
vn 0.0342 -0.0824 0.9960
vn 0.0000 0.4538 -0.8911
vn -0.0690 -0.1666 0.9836
vn 0.0000 -0.0892 0.9960
vn 0.1737 0.4193 -0.8911
vn -0.1275 -0.1275 0.9836
vn -0.0342 -0.0824 0.9960
vn 0.3209 0.3209 -0.8911
vn -0.1666 -0.0690 0.9836
vn -0.0631 -0.0631 0.9960
vn 0.4193 0.1737 -0.8911
vn -0.1803 0.0000 0.9836
vn -0.0824 -0.0342 0.9960
vn 0.4538 0.0000 -0.8911
vn -0.1666 0.0690 0.9836
vn -0.0892 0.0000 0.9960
vn 0.4193 -0.1737 -0.8911
vn -0.1275 0.1275 0.9836
vn -0.0824 0.0342 0.9960
vn 0.3209 -0.3209 -0.8911
vn -0.0690 0.1666 0.9836
vn -0.0631 0.0631 0.9960
vn 0.1737 -0.4193 -0.8911
vn 0.0000 0.0000 -1.0000
vn 0.0683 -0.0683 -0.9953
vn 0.0893 0.0370 -0.9953
vn 0.0966 0.0000 -0.9953
vn 0.0683 0.0683 -0.9953
vn -0.0893 -0.0370 -0.9953
vn -0.0966 0.0000 -0.9953
vn -0.0683 -0.0683 -0.9953
vn -0.0370 0.0893 -0.9953
vn 0.0000 0.0966 -0.9953
vn -0.0683 0.0683 -0.9953
vn -0.0893 0.0370 -0.9953
vn -0.0370 -0.0893 -0.9953
vn 0.0893 -0.0370 -0.9953
vn 0.0370 0.0893 -0.9953
vn 0.5253 -0.5253 -0.6693
vn 0.6864 -0.2843 -0.6693
vn 0.7429 0.0000 -0.6693
vn 0.6864 0.2843 -0.6693
vn 0.5253 0.5253 -0.6693
vn 0.2843 0.6864 -0.6693
vn 0.0000 0.7429 -0.6693
vn -0.2843 0.6864 -0.6693
vn -0.5253 0.5253 -0.6693
vn -0.6864 0.2843 -0.6693
vn -0.7429 0.0000 -0.6693
vn -0.6864 -0.2843 -0.6693
vn -0.5253 -0.5253 -0.6693
vn -0.2843 -0.6864 -0.6693
usemtl shield
s 1
f 3/1/1 5/2/2 11/3/3 7/4/4
f 77/5/5 81/6/6 5/2/2 3/1/1
f 1/7/7 45/8/8 40/9/9 35/10/10
f 7/4/4 11/3/3 16/11/11 12/12/12
f 1/7/7 35/10/10 30/13/13 25/14/14
f 12/12/12 16/11/11 21/15/15 17/16/16
f 17/16/16 21/15/15 26/17/17 22/18/18
f 1/7/7 65/19/19 60/20/20 55/21/21
f 22/18/18 26/17/17 31/22/22 27/23/23
f 27/23/23 31/22/22 36/24/24 32/25/25
f 1/7/7 55/21/21 50/26/26 45/8/8
f 32/25/25 36/24/24 41/27/27 37/28/28
f 37/28/28 41/27/27 46/29/29 42/30/30
f 1/7/7 25/14/14 20/31/31 15/32/32
f 42/30/30 46/29/29 51/33/33 47/34/34
f 47/34/34 51/33/33 56/35/35 52/36/36
f 1/7/7 75/37/37 70/38/38 65/19/19
f 52/36/36 56/35/35 61/39/39 57/40/40
f 57/40/40 61/39/39 66/41/41 62/42/42
f 84/43/43 98/44/44 80/45/45 6/46/46
f 62/42/42 66/41/41 71/47/47 67/48/48
f 67/48/48 71/47/47 76/49/49 72/50/50
f 10/51/51 6/46/46 1/7/7 15/32/32
f 72/50/50 76/49/49 81/6/6 77/5/5
f 115/52/52 2/53/53 78/54/54 130/55/55
f 5/2/2 114/56/56 99/57/57 11/3/3
f 3/58/1 7/59/4 9/60/58 4/61/59
f 16/11/11 11/3/3 99/57/57 100/62/60
f 83/63/61 84/43/43 6/46/46 10/51/51
f 7/59/4 12/64/12 14/65/62 9/60/58
f 21/15/15 16/11/11 100/62/60 101/66/63
f 85/67/64 83/63/61 10/51/51 15/32/32
f 12/64/12 17/68/16 19/69/65 14/65/62
f 26/17/17 21/15/15 101/66/63 102/70/66
f 86/71/67 85/67/64 15/32/32 20/31/31
f 17/68/16 22/72/18 24/73/68 19/69/65
f 31/22/22 26/17/17 102/70/66 103/74/69
f 87/75/70 86/71/67 20/31/31 25/14/14
f 22/72/18 27/76/23 29/77/71 24/73/68
f 36/24/24 31/22/22 103/74/69 104/78/72
f 88/79/73 87/75/70 25/14/14 30/13/13
f 27/76/23 32/80/25 34/81/74 29/77/71
f 41/27/27 36/24/24 104/78/72 105/82/75
f 89/83/76 88/79/73 30/13/13 35/10/10
f 32/80/25 37/84/28 39/85/77 34/81/74
f 46/29/29 41/27/27 105/82/75 106/86/78
f 90/87/79 89/83/76 35/10/10 40/9/9
f 37/84/28 42/88/30 44/89/80 39/85/77
f 51/33/33 46/29/29 106/86/78 107/90/81
f 91/91/82 90/87/79 40/9/9 45/8/8
f 42/88/30 47/92/34 49/93/83 44/89/80
f 56/35/35 51/33/33 107/90/81 108/94/84
f 92/95/85 91/91/82 45/8/8 50/26/26
f 47/92/34 52/96/36 54/97/86 49/93/83
f 61/39/39 56/35/35 108/94/84 109/98/87
f 93/99/88 92/95/85 50/26/26 55/21/21
f 52/96/36 57/100/40 59/101/89 54/97/86
f 66/41/41 61/39/39 109/98/87 110/102/90
f 94/103/91 93/99/88 55/21/21 60/20/20
f 57/100/40 62/104/42 64/105/92 59/101/89
f 71/47/47 66/41/41 110/102/90 111/106/93
f 95/107/94 94/103/91 60/20/20 65/19/19
f 62/104/42 67/108/48 69/109/95 64/105/92
f 76/49/49 71/47/47 111/106/93 112/110/96
f 96/111/97 95/107/94 65/19/19 70/38/38
f 67/108/48 72/112/50 74/113/98 69/109/95
f 81/6/6 76/49/49 112/110/96 113/114/99
f 97/115/100 96/111/97 70/38/38 75/37/37
f 72/112/50 77/116/5 79/117/101 74/113/98
f 98/44/44 97/115/100 75/37/37 80/45/45
f 82/118/102 73/119/103 78/54/54 2/53/53
f 58/120/104 63/121/105 82/118/102 53/122/106
f 18/123/107 23/124/108 82/118/102 13/125/109
f 38/126/110 43/127/111 82/118/102 33/128/112
f 82/118/102 23/124/108 28/129/113 33/128/112
f 13/125/109 82/118/102 2/53/53 8/130/114
f 82/118/102 63/121/105 68/131/115 73/119/103
f 53/122/106 82/118/102 43/127/111 48/132/116
f 97/115/100 98/44/44 113/114/99 112/110/96
f 96/111/97 97/115/100 112/110/96 111/106/93
f 95/107/94 96/111/97 111/106/93 110/102/90
f 94/103/91 95/107/94 110/102/90 109/98/87
f 93/99/88 94/103/91 109/98/87 108/94/84
f 92/95/85 93/99/88 108/94/84 107/90/81
f 91/91/82 92/95/85 107/90/81 106/86/78
f 90/87/79 91/91/82 106/86/78 105/82/75
f 89/83/76 90/87/79 105/82/75 104/78/72
f 88/79/73 89/83/76 104/78/72 103/74/69
f 87/75/70 88/79/73 103/74/69 102/70/66
f 86/71/67 87/75/70 102/70/66 101/66/63
f 85/67/64 86/71/67 101/66/63 100/62/60
f 83/63/61 85/67/64 100/62/60 99/57/57
f 114/56/56 84/43/43 83/63/61 99/57/57
f 1/7/7 6/46/46 80/45/45 75/37/37
f 130/55/55 78/54/54 73/119/103 129/133/117
f 129/133/117 73/119/103 68/131/115 128/134/118
f 128/134/118 68/131/115 63/121/105 127/135/119
f 127/135/119 63/121/105 58/120/104 126/136/120
f 126/136/120 58/120/104 53/122/106 125/137/121
f 125/137/121 53/122/106 48/132/116 124/138/122
f 124/138/122 48/132/116 43/127/111 123/139/123
f 123/139/123 43/127/111 38/126/110 122/140/124
f 122/140/124 38/126/110 33/128/112 121/141/125
f 121/141/125 33/128/112 28/129/113 120/142/126
f 120/142/126 28/129/113 23/124/108 119/143/127
f 119/143/127 23/124/108 18/123/107 118/144/128
f 118/144/128 18/123/107 13/125/109 117/145/129
f 117/145/129 13/125/109 8/130/114 116/146/130
f 116/146/130 8/130/114 2/53/53 115/52/52
f 4/61/59 9/60/58 116/146/130 115/52/52
f 9/60/58 14/65/62 117/145/129 116/146/130
f 14/65/62 19/69/65 118/144/128 117/145/129
f 19/69/65 24/73/68 119/143/127 118/144/128
f 24/73/68 29/77/71 120/142/126 119/143/127
f 29/77/71 34/81/74 121/141/125 120/142/126
f 34/81/74 39/85/77 122/140/124 121/141/125
f 39/85/77 44/89/80 123/139/123 122/140/124
f 44/89/80 49/93/83 124/138/122 123/139/123
f 49/93/83 54/97/86 125/137/121 124/138/122
f 54/97/86 59/101/89 126/136/120 125/137/121
f 59/101/89 64/105/92 127/135/119 126/136/120
f 64/105/92 69/109/95 128/134/118 127/135/119
f 69/109/95 74/113/98 129/133/117 128/134/118
f 74/113/98 79/117/101 130/55/55 129/133/117
f 79/117/101 4/61/59 115/52/52 130/55/55
f 77/116/5 3/58/1 4/61/59 79/117/101
f 5/2/2 81/6/6 113/114/99 114/56/56
f 98/44/44 84/43/43 114/56/56 113/114/99
