# Wavefront Obj file
# 
# verts: 120 uv-s: 240
mtllib M_CSPedistal.mtl

g Box001
#pivot 0.000000 0.000000 0.000000

v -30.312599 0.000000 30.911100
v 30.312599 0.000000 30.911100
v 30.312599 3.614100 30.911100
v -30.312599 3.614100 30.911100
v 30.312599 0.000000 -30.911100
v 30.312599 3.614100 -30.911100
v -30.312599 0.000000 -30.911100
v -30.312599 3.614100 -30.911100
v 27.159401 5.937200 27.695700
v -27.159401 5.937200 27.695700
v 27.159401 5.937200 -27.695700
v -27.159401 5.937200 -27.695700
v 27.159401 9.475600 27.695700
v -27.159401 9.475600 27.695700
v 27.159401 9.475600 -27.695700
v -27.159401 9.475600 -27.695700
v 24.547001 11.798800 25.031700
v -24.547001 11.798800 25.031700
v 24.547001 11.798800 -25.031700
v -24.547001 11.798800 -25.031700
v 24.547001 15.668900 25.031700
v -24.547001 15.668900 25.031700
v 24.547001 15.668900 -25.031700
v -24.547001 15.668900 -25.031700
v 20.735300 17.992001 21.144699
v -20.735300 17.992001 21.144699
v 20.735300 17.992001 -21.144699
v -20.735300 17.992001 -21.144699
v 18.418699 28.531401 18.782400
v 18.418699 45.093300 18.782400
v -18.418699 45.093300 18.782400
v -18.418699 28.531401 18.782400
v 18.418699 28.531401 -18.782400
v 18.418699 45.093300 -18.782400
v -18.418699 28.531401 -18.782400
v -18.418699 45.093300 -18.782400
v -20.735300 55.632702 21.144699
v 20.735300 55.632702 21.144699
v 23.343300 57.169498 23.804199
v -23.343300 57.169498 23.804199
v 20.735300 55.632702 -21.144699
v 23.343300 57.169498 -23.804199
v -20.735300 55.632702 -21.144699
v -23.343300 57.169498 -23.804199
v 23.343300 59.518501 23.804199
v -23.343300 59.518501 23.804199
v 23.343300 59.518501 -23.804199
v -23.343300 59.518501 -23.804199
v 20.549601 61.983101 20.955400
v -20.549601 61.983101 20.955400
v 20.549601 61.983101 -20.955400
v -20.549601 61.983101 -20.955400
v 18.299900 72.522499 18.661301
v 18.372499 89.084503 18.735300
v -18.372499 89.084503 18.735300
v -18.299900 72.522499 18.661301
v 18.299900 72.522499 -18.661301
v 18.372499 89.084503 -18.735300
v -18.299900 72.522499 -18.661301
v -18.372499 89.084503 -18.735300
v -20.735300 99.623901 21.144699
v 20.735300 99.623901 21.144699
v 23.343300 101.160698 23.804199
v -23.343300 101.160698 23.804199
v 20.735300 99.623901 -21.144699
v 23.343300 101.160698 -23.804199
v -20.735300 99.623901 -21.144699
v -23.343300 101.160698 -23.804199
v 23.343300 103.509598 23.804199
v -23.343300 103.509598 23.804199
v 23.343300 103.509598 -23.804199
v -23.343300 103.509598 -23.804199
v 20.549601 105.974297 20.955400
v -20.549601 105.974297 20.955400
v 20.549601 105.974297 -20.955400
v -20.549601 105.974297 -20.955400
v 18.299900 116.513702 18.661301
v 18.372499 133.075607 18.735300
v -18.372499 133.075607 18.735300
v -18.299900 116.513702 18.661301
v 18.299900 116.513702 -18.661301
v 18.372499 133.075607 -18.735300
v -18.299900 116.513702 -18.661301
v -18.372499 133.075607 -18.735300
v 16.136499 166.172104 16.845100
v 16.136499 166.172104 -16.845100
v -16.136499 166.172104 -16.845100
v -16.136499 166.172104 16.845100
v 30.312599 161.606995 30.911100
v -30.312599 161.606995 30.911100
v -30.312599 158.291901 30.911100
v 30.312599 158.291901 30.911100
v -30.312599 161.606995 -30.911100
v -30.312599 158.291901 -30.911100
v 30.312599 161.606995 -30.911100
v 30.312599 158.291901 -30.911100
v -27.159401 155.669800 27.695700
v 27.159401 155.669800 27.695700
v -27.159401 155.669800 -27.695700
v 27.159401 155.669800 -27.695700
v -27.159401 152.512497 27.695700
v 27.159401 152.512497 27.695700
v -27.159401 152.512497 -27.695700
v 27.159401 152.512497 -27.695700
v -24.547001 149.808197 25.031700
v 24.547001 149.808197 25.031700
v -24.547001 149.808197 -25.031700
v 24.547001 149.808197 -25.031700
v -24.547001 146.518997 25.031700
v 24.547001 146.518997 25.031700
v -24.547001 146.518997 -25.031700
v 24.547001 146.518997 -25.031700
v -20.735300 143.615005 21.144699
v 20.735300 143.615005 21.144699
v -20.735300 143.615005 -21.144699
v 20.735300 143.615005 -21.144699
v 20.705500 167.762894 -21.304100
v 20.705500 167.762894 21.304100
v -20.705500 167.762894 -21.304100
v -20.705500 167.762894 21.304100
# 120 positions

vt 0.437791 0.688941
vt 0.636914 0.688948
vt 0.636913 0.700819
vt 0.437791 0.700812
vt 0.839968 0.688958
vt 0.839967 0.700828
vt 0.035614 0.688946
vt 0.234737 0.688941
vt 0.234737 0.700812
vt 0.035614 0.700817
vt 0.626556 0.713848
vt 0.448147 0.713841
vt 0.829406 0.713692
vt 0.647474 0.713683
vt 0.224381 0.713841
vt 0.045971 0.713846
vt 0.427230 0.713676
vt 0.245298 0.713676
vt 0.387418 0.580830
vt 0.565827 0.580833
vt 0.565827 0.592455
vt 0.387418 0.592452
vt 0.747760 0.580838
vt 0.747759 0.592460
vt 0.027076 0.580833
vt 0.205486 0.580831
vt 0.205486 0.592453
vt 0.027076 0.592455
vt 0.557246 0.604065
vt 0.395998 0.604062
vt 0.739009 0.603943
vt 0.574576 0.603938
vt 0.196905 0.604063
vt 0.035656 0.604065
vt 0.378668 0.603935
vt 0.214236 0.603935
vt 0.358662 0.522817
vt 0.197414 0.522820
vt 0.197413 0.510109
vt 0.358662 0.510105
vt 0.032981 0.522828
vt 0.032980 0.510116
vt 0.684344 0.522825
vt 0.523095 0.522820
vt 0.523096 0.510109
vt 0.684344 0.510114
vt 0.209933 0.495235
vt 0.346142 0.495232
vt 0.045747 0.495454
vt 0.184646 0.495448
vt 0.535616 0.495236
vt 0.671826 0.495240
vt 0.371429 0.495444
vt 0.510329 0.495447
vt 0.399279 0.894029
vt 0.403704 0.951557
vt 0.279644 0.952811
vt 0.276127 0.895686
vt 0.520819 0.887947
vt 0.527971 0.932561
vt 0.150198 0.895854
vt 0.153517 0.953435
vt 0.033715 0.956167
vt 0.028446 0.911284
vt 0.352183 0.628877
vt 0.488392 0.628869
vt 0.496959 0.638957
vt 0.343617 0.638966
vt 0.505693 0.629014
vt 0.644591 0.629000
vt 0.653327 0.638941
vt 0.042472 0.628876
vt 0.178682 0.628877
vt 0.187248 0.638966
vt 0.033906 0.638965
vt 0.195983 0.629023
vt 0.334882 0.629023
vt 0.496959 0.646672
vt 0.343617 0.646681
vt 0.653328 0.646656
vt 0.187248 0.646681
vt 0.033906 0.646680
vt 0.487784 0.659045
vt 0.352794 0.659053
vt 0.643973 0.658894
vt 0.506317 0.658908
vt 0.178072 0.659053
vt 0.043082 0.659052
vt 0.334260 0.658918
vt 0.196605 0.658917
vt 0.399279 0.894029
vt 0.403704 0.951557
vt 0.279644 0.952811
vt 0.276127 0.895686
vt 0.520819 0.887947
vt 0.527971 0.932561
vt 0.150198 0.895854
vt 0.153517 0.953435
vt 0.033715 0.956167
vt 0.028446 0.911284
vt 0.352183 0.628877
vt 0.488392 0.628869
vt 0.496959 0.638957
vt 0.343617 0.638966
vt 0.505693 0.629014
vt 0.644591 0.629000
vt 0.653327 0.638941
vt 0.042472 0.628876
vt 0.178682 0.628877
vt 0.187248 0.638966
vt 0.033906 0.638965
vt 0.195983 0.629023
vt 0.334882 0.629023
vt 0.496959 0.646672
vt 0.343617 0.646681
vt 0.653328 0.646656
vt 0.187248 0.646681
vt 0.033906 0.646680
vt 0.487784 0.659045
vt 0.352794 0.659053
vt 0.643973 0.658894
vt 0.506317 0.658908
vt 0.178072 0.659053
vt 0.043082 0.659052
vt 0.334260 0.658918
vt 0.196605 0.658917
vt 0.399279 0.894029
vt 0.403704 0.951557
vt 0.279644 0.952811
vt 0.276127 0.895686
vt 0.520819 0.887947
vt 0.527971 0.932561
vt 0.150198 0.895854
vt 0.153517 0.953435
vt 0.033715 0.956167
vt 0.028446 0.911284
vt 0.574881 0.974450
vt 0.574881 0.863795
vt 0.680881 0.863795
vt 0.680881 0.974450
vt 0.634960 0.762170
vt 0.435838 0.762181
vt 0.435837 0.751292
vt 0.634960 0.751281
vt 0.232782 0.762178
vt 0.232783 0.751290
vt 0.033660 0.762170
vt 0.033660 0.751281
vt 0.838015 0.762152
vt 0.838014 0.751264
vt 0.446193 0.737664
vt 0.624602 0.737654
vt 0.243344 0.737820
vt 0.425276 0.737823
vt 0.044017 0.737654
vt 0.222426 0.737662
vt 0.645519 0.737811
vt 0.827452 0.737795
vt 0.567535 0.565199
vt 0.389126 0.565191
vt 0.389126 0.554821
vt 0.567535 0.554828
vt 0.207194 0.565197
vt 0.207193 0.554827
vt 0.028784 0.565210
vt 0.028783 0.554840
vt 0.749467 0.565210
vt 0.749468 0.554840
vt 0.397706 0.542353
vt 0.558955 0.542359
vt 0.215942 0.542477
vt 0.380375 0.542472
vt 0.037363 0.542370
vt 0.198612 0.542359
vt 0.576286 0.542478
vt 0.740719 0.542490
vt 0.519129 0.479131
vt 0.357880 0.479130
vt 0.357880 0.468327
vt 0.519129 0.468328
vt 0.193447 0.479131
vt 0.193447 0.468327
vt 0.032199 0.479132
vt 0.032199 0.468328
vt 0.683561 0.479132
vt 0.683561 0.468329
vt 0.370400 0.452390
vt 0.506609 0.452391
vt 0.206214 0.452588
vt 0.345113 0.452588
vt 0.044718 0.452392
vt 0.180928 0.452391
vt 0.531896 0.452589
vt 0.670795 0.452590
vt 0.806464 0.799631
vt 0.666518 0.799643
vt 0.201226 0.799653
vt 0.065212 0.799647
vt 0.404283 0.799657
vt 0.264336 0.799655
vt 0.603408 0.799648
vt 0.467394 0.799655
vt 0.558990 0.989096
vt 0.558991 0.849150
vt 0.559874 0.848246
vt 0.695888 0.848246
vt 0.696772 0.849150
vt 0.696772 0.989096
vt 0.695888 0.990000
vt 0.559874 0.990000
vt 0.410614 0.989433
vt 0.279360 0.990000
vt 0.276549 0.858674
vt 0.404098 0.858047
vt 0.547785 0.961703
vt 0.537645 0.860064
vt 0.147939 0.989482
vt 0.015927 0.983613
vt 0.010000 0.881446
vt 0.143947 0.858047
vt 0.410614 0.989433
vt 0.279360 0.990000
vt 0.276549 0.858674
vt 0.404098 0.858047
vt 0.547785 0.961703
vt 0.537645 0.860064
vt 0.147939 0.989482
vt 0.015927 0.983613
vt 0.010000 0.881446
vt 0.143947 0.858047
vt 0.410614 0.989433
vt 0.279360 0.990000
vt 0.276549 0.858674
vt 0.404098 0.858047
vt 0.547785 0.961703
vt 0.537645 0.860064
vt 0.147939 0.989482
vt 0.015927 0.983613
vt 0.010000 0.881446
vt 0.143947 0.858047
# 240 texture coordinates

vn -0.713985 -0.000000 0.700161
vn 0.713985 -0.000000 0.700161
vn 0.568893 0.604263 0.557878
vn -0.568893 0.604263 0.557878
vn 0.713985 -0.000000 -0.700161
vn 0.568893 0.604263 -0.557878
vn -0.713985 -0.000000 -0.700161
vn -0.568893 0.604263 -0.557878
vn 0.566212 0.609183 0.555248
vn -0.566212 0.609183 0.555248
vn 0.566212 0.609183 -0.555248
vn -0.566212 0.609183 -0.555248
vn 0.602347 0.536910 0.590683
vn -0.602347 0.536910 0.590683
vn 0.602347 0.536910 -0.590683
vn -0.602347 0.536910 -0.590683
vn 0.611607 0.515966 0.599764
vn -0.611607 0.515966 0.599764
vn 0.611607 0.515966 -0.599764
vn -0.611607 0.515966 -0.599764
vn 0.536299 0.660150 0.525914
vn -0.536299 0.660150 0.525914
vn 0.536299 0.660150 -0.525914
vn -0.536299 0.660150 -0.525914
vn 0.590316 0.562509 0.578887
vn -0.590316 0.562509 0.578887
vn 0.590316 0.562509 -0.578887
vn -0.590316 0.562509 -0.578887
vn 0.708726 0.121162 0.695002
vn 0.708726 -0.121162 0.695002
vn -0.708726 -0.121162 0.695002
vn -0.708726 0.121162 0.695002
vn 0.708726 0.121162 -0.695002
vn 0.708726 -0.121162 -0.695002
vn -0.708726 0.121162 -0.695002
vn -0.708726 -0.121162 -0.695002
vn -0.616998 -0.503215 0.605052
vn 0.616998 -0.503215 0.605052
vn 0.515468 -0.691935 0.505488
vn -0.515468 -0.691935 0.505488
vn 0.616998 -0.503215 -0.605052
vn 0.515468 -0.691935 -0.505488
vn -0.616998 -0.503215 -0.605052
vn -0.515468 -0.691935 -0.505488
vn 0.549735 0.638100 0.539091
vn -0.549735 0.638100 0.539091
vn 0.549735 0.638100 -0.539091
vn -0.549735 0.638100 -0.539091
vn 0.624599 0.484475 0.612503
vn -0.624599 0.484475 0.612503
vn 0.624599 0.484475 -0.612503
vn -0.624599 0.484475 -0.612503
vn 0.709335 0.113964 0.695598
vn 0.708179 -0.127275 0.694466
vn -0.708179 -0.127275 0.694466
vn -0.709335 0.113964 0.695598
vn 0.709335 0.113964 -0.695598
vn 0.708179 -0.127275 -0.694466
vn -0.709335 0.113964 -0.695598
vn -0.708179 -0.127275 -0.694466
vn -0.615531 -0.506727 0.603613
vn 0.615531 -0.506727 0.603613
vn 0.615531 -0.506727 -0.603613
vn -0.615531 -0.506727 -0.603613
vn -0.038637 0.998568 -0.037012
vn -0.038637 0.998568 0.037012
vn 0.038637 0.998568 0.037012
vn 0.038637 0.998568 -0.037012
vn 0.408313 0.820338 0.400407
vn -0.408313 0.820338 0.400407
vn -0.568892 -0.604263 0.557877
vn 0.568892 -0.604263 0.557877
vn -0.408313 0.820338 -0.400407
vn -0.568892 -0.604263 -0.557877
vn 0.408313 0.820338 -0.400407
vn 0.568892 -0.604263 -0.557877
vn -0.563230 -0.614582 0.552323
vn 0.563230 -0.614582 0.552323
vn -0.563230 -0.614582 -0.552323
vn 0.563230 -0.614582 -0.552323
vn -0.602347 -0.536910 0.590683
vn 0.602347 -0.536910 0.590683
vn -0.602347 -0.536910 -0.590683
vn 0.602347 -0.536910 -0.590683
vn -0.606162 -0.528420 0.594424
vn 0.606162 -0.528420 0.594424
vn -0.606162 -0.528420 -0.594424
vn 0.606162 -0.528420 -0.594424
vn -0.536299 -0.660150 0.525914
vn 0.536299 -0.660150 0.525914
vn -0.536299 -0.660150 -0.525914
vn 0.536299 -0.660150 -0.525914
vn -0.597032 -0.548429 0.585473
vn 0.597032 -0.548429 0.585473
vn -0.597032 -0.548429 -0.585473
vn 0.597032 -0.548429 -0.585473
vn 0.159813 0.974851 -0.155323
vn 0.159813 0.974851 0.155323
vn -0.159813 0.974851 -0.155323
vn -0.159813 0.974851 0.155323
# 100 normals

usemtl wire_225088199
f 1/1/1 2/2/2 3/3/3 4/4/4
f 2/2/2 5/5/5 6/6/6 3/3/3
f 5/7/5 7/8/7 8/9/8 6/10/6
f 7/8/7 1/1/1 4/4/4 8/9/8
f 4/4/4 3/3/3 9/11/9 10/12/10
f 3/3/3 6/6/6 11/13/11 9/14/9
f 6/10/6 8/9/8 12/15/12 11/16/11
f 8/9/8 4/4/4 10/17/10 12/18/12
f 10/19/10 9/20/9 13/21/13 14/22/14
f 9/20/9 11/23/11 15/24/15 13/21/13
f 11/25/11 12/26/12 16/27/16 15/28/15
f 12/26/12 10/19/10 14/22/14 16/27/16
f 14/22/14 13/21/13 17/29/17 18/30/18
f 13/21/13 15/24/15 19/31/19 17/32/17
f 15/28/15 16/27/16 20/33/20 19/34/19
f 16/27/16 14/22/14 18/35/18 20/36/20
f 18/37/18 17/38/17 21/39/21 22/40/22
f 17/38/17 19/41/19 23/42/23 21/39/21
f 19/43/19 20/44/20 24/45/24 23/46/23
f 20/44/20 18/37/18 22/40/22 24/45/24
f 22/40/22 21/39/21 25/47/25 26/48/26
f 21/39/21 23/42/23 27/49/27 25/50/25
f 23/46/23 24/45/24 28/51/28 27/52/27
f 24/45/24 22/40/22 26/53/26 28/54/28
f 29/55/29 30/56/30 31/57/31 32/58/32
f 33/59/33 34/60/34 30/56/30 29/55/29
f 35/61/35 36/62/36 34/63/34 33/64/33
f 32/58/32 31/57/31 36/62/36 35/61/35
f 37/65/37 38/66/38 39/67/39 40/68/40
f 38/69/38 41/70/41 42/71/42 39/67/39
f 41/72/41 43/73/43 44/74/44 42/75/42
f 43/76/43 37/77/37 40/68/40 44/74/44
f 40/68/40 39/67/39 45/78/45 46/79/46
f 39/67/39 42/71/42 47/80/47 45/78/45
f 42/75/42 44/74/44 48/81/48 47/82/47
f 44/74/44 40/68/40 46/79/46 48/81/48
f 46/79/46 45/78/45 49/83/49 50/84/50
f 45/78/45 47/80/47 51/85/51 49/86/49
f 47/82/47 48/81/48 52/87/52 51/88/51
f 48/81/48 46/79/46 50/89/50 52/90/52
f 53/91/53 54/92/54 55/93/55 56/94/56
f 57/95/57 58/96/58 54/92/54 53/91/53
f 59/97/59 60/98/60 58/99/58 57/100/57
f 56/94/56 55/93/55 60/98/60 59/97/59
f 61/101/61 62/102/62 63/103/39 64/104/40
f 62/105/62 65/106/63 66/107/42 63/103/39
f 65/108/63 67/109/64 68/110/44 66/111/42
f 67/112/64 61/113/61 64/104/40 68/110/44
f 64/104/40 63/103/39 69/114/45 70/115/46
f 63/103/39 66/107/42 71/116/47 69/114/45
f 66/111/42 68/110/44 72/117/48 71/118/47
f 68/110/44 64/104/40 70/115/46 72/117/48
f 70/115/46 69/114/45 73/119/49 74/120/50
f 69/114/45 71/116/47 75/121/51 73/122/49
f 71/118/47 72/117/48 76/123/52 75/124/51
f 72/117/48 70/115/46 74/125/50 76/126/52
f 77/127/53 78/128/54 79/129/55 80/130/56
f 81/131/57 82/132/58 78/128/54 77/127/53
f 83/133/59 84/134/60 82/135/58 81/136/57
f 80/130/56 79/129/55 84/134/60 83/133/59
f 85/137/65 86/138/66 87/139/67 88/140/68
f 89/141/69 90/142/70 91/143/71 92/144/72
f 90/142/70 93/145/73 94/146/74 91/143/71
f 93/145/73 95/147/75 96/148/76 94/146/74
f 95/149/75 89/141/69 92/144/72 96/150/76
f 92/144/72 91/143/71 97/151/77 98/152/78
f 91/143/71 94/146/74 99/153/79 97/154/77
f 94/146/74 96/148/76 100/155/80 99/156/79
f 96/150/76 92/144/72 98/157/78 100/158/80
f 98/159/78 97/160/77 101/161/81 102/162/82
f 97/160/77 99/163/79 103/164/83 101/161/81
f 99/163/79 100/165/80 104/166/84 103/164/83
f 100/167/80 98/159/78 102/162/82 104/168/84
f 102/162/82 101/161/81 105/169/85 106/170/86
f 101/161/81 103/164/83 107/171/87 105/172/85
f 103/164/83 104/166/84 108/173/88 107/174/87
f 104/168/84 102/162/82 106/175/86 108/176/88
f 106/177/86 105/178/85 109/179/89 110/180/90
f 105/178/85 107/181/87 111/182/91 109/179/89
f 107/181/87 108/183/88 112/184/92 111/182/91
f 108/185/88 106/177/86 110/180/90 112/186/92
f 110/180/90 109/179/89 113/187/93 114/188/94
f 109/179/89 111/182/91 115/189/95 113/190/93
f 111/182/91 112/184/92 116/191/96 115/192/95
f 112/186/92 110/180/90 114/193/94 116/194/96
f 89/141/69 95/149/75 117/195/97 118/196/98
f 95/147/75 93/145/73 119/197/99 117/198/97
f 93/145/73 90/142/70 120/199/100 119/200/99
f 90/142/70 89/141/69 118/201/98 120/202/100
f 118/203/98 117/204/97 86/138/66 85/137/65
f 117/205/97 119/206/99 87/139/67 86/138/66
f 119/207/99 120/208/100 88/140/68 87/139/67
f 120/209/100 118/210/98 85/137/65 88/140/68
f 30/56/30 38/211/38 37/212/37 31/57/31
f 32/58/32 26/213/26 25/214/25 29/55/29
f 34/60/34 41/215/41 38/211/38 30/56/30
f 29/55/29 25/214/25 27/216/27 33/59/33
f 36/62/36 43/217/43 41/218/41 34/63/34
f 33/64/33 27/219/27 28/220/28 35/61/35
f 31/57/31 37/212/37 43/217/43 36/62/36
f 35/61/35 28/220/28 26/213/26 32/58/32
f 54/92/54 62/221/62 61/222/61 55/93/55
f 56/94/56 50/223/50 49/224/49 53/91/53
f 58/96/58 65/225/63 62/221/62 54/92/54
f 53/91/53 49/224/49 51/226/51 57/95/57
f 60/98/60 67/227/64 65/228/63 58/99/58
f 57/100/57 51/229/51 52/230/52 59/97/59
f 55/93/55 61/222/61 67/227/64 60/98/60
f 59/97/59 52/230/52 50/223/50 56/94/56
f 78/128/54 114/231/94 113/232/93 79/129/55
f 80/130/56 74/233/50 73/234/49 77/127/53
f 82/132/58 116/235/96 114/231/94 78/128/54
f 77/127/53 73/234/49 75/236/51 81/131/57
f 84/134/60 115/237/95 116/238/96 82/135/58
f 81/136/57 75/239/51 76/240/52 83/133/59
f 79/129/55 113/232/93 115/237/95 84/134/60
f 83/133/59 76/240/52 74/233/50 80/130/56

# 117 faces
