# Blender v2.93.0 OBJ File: 'IceArmor.blend'
# www.blender.org
mtllib IceArmor.mtl
o Armor_Cone.003
v 0.137184 1.539873 -0.209003
v 0.206345 1.540988 -0.155711
v 0.206345 1.592569 -0.085255
v 0.137184 1.643034 -0.068092
v 0.068023 1.641918 -0.121384
v 0.068023 1.590338 -0.191839
v 0.399377 2.069916 -0.488830
v 0.090774 1.422956 -0.182189
v 0.145464 1.421947 -0.137190
v 0.155469 1.475893 -0.092396
v 0.110785 1.530849 -0.092600
v 0.056095 1.531858 -0.137598
v 0.046090 1.477912 -0.182393
v 0.400103 1.718949 -0.495748
v 0.089225 1.311756 -0.127684
v 0.134688 1.318517 -0.089625
v 0.148250 1.372721 -0.068674
v 0.116351 1.420163 -0.085780
v 0.070889 1.413401 -0.123839
v 0.057326 1.359198 -0.144790
v 0.378830 1.428651 -0.447613
v 0.034918 1.855667 0.187332
v 0.034942 1.913574 0.172492
v 0.048416 1.709898 0.131684
v 0.084782 2.031012 0.108563
v 0.053263 1.874156 0.178839
v 0.066082 1.899794 0.166148
v 0.109466 1.893131 0.109319
v 0.108545 1.928509 0.128268
v 0.046385 1.815535 0.191498
v 0.086913 1.834166 0.112454
v 0.088943 1.784291 0.082873
v 0.059794 1.865670 0.154945
v 0.048113 1.847593 0.168626
v 0.044156 1.834751 0.167756
v 0.077803 1.847664 0.138345
v 0.090070 1.872457 0.130774
v 0.176011 1.613180 0.119611
v 0.221701 1.775855 0.013491
v 0.179432 1.602473 -0.221100
v 0.207651 1.773702 -0.113924
v 0.311456 1.618628 0.070759
v 0.388251 1.772901 0.013491
v 0.335085 1.618628 -0.163263
v 0.390344 1.784703 -0.119102
v 0.126352 1.452214 -0.054375
v 0.211825 1.824622 -0.054375
v 0.414173 1.589278 -0.054375
v 0.511086 1.893568 -0.022049
v 0.130138 1.695026 0.070185
v 0.119808 1.703887 -0.166947
v 0.335085 1.690595 -0.106398
v 0.307025 1.683211 0.000774
v 0.396818 1.707018 -0.046481
v 0.084818 1.705380 -0.054375
v 0.169613 1.462574 0.213619
v 0.079091 1.622095 0.163430
v 0.129739 1.292614 0.159332
v 0.199620 1.402301 0.110027
v 0.157746 1.648486 0.114022
v -0.137184 1.539873 -0.209003
v -0.206345 1.540988 -0.155711
v -0.206345 1.592569 -0.085255
v -0.137184 1.643034 -0.068092
v -0.068023 1.641918 -0.121384
v -0.068023 1.590338 -0.191839
v -0.399377 2.069916 -0.488830
v -0.090774 1.422956 -0.182189
v -0.145464 1.421947 -0.137190
v -0.155469 1.475893 -0.092396
v -0.110785 1.530849 -0.092600
v -0.056095 1.531858 -0.137598
v -0.046090 1.477912 -0.182393
v -0.400103 1.718949 -0.495748
v -0.089225 1.311756 -0.127684
v -0.134688 1.318517 -0.089625
v -0.148250 1.372721 -0.068674
v -0.116351 1.420163 -0.085780
v -0.070889 1.413401 -0.123839
v -0.057326 1.359198 -0.144790
v -0.378830 1.428651 -0.447613
v 0.000000 1.806279 0.264787
v -0.034918 1.855667 0.187332
v 0.000000 1.897765 0.226086
v -0.034942 1.913574 0.172492
v 0.000000 1.654416 0.189291
v -0.048416 1.709898 0.131684
v 0.000000 1.973912 0.167349
v -0.084782 2.031012 0.108563
v -0.053263 1.874156 0.178839
v -0.066082 1.899794 0.166148
v -0.109466 1.893131 0.109319
v -0.108545 1.928509 0.128268
v 0.000000 1.785359 0.216781
v -0.046385 1.815535 0.191498
v -0.086913 1.834166 0.112454
v -0.088943 1.784291 0.082873
v -0.059794 1.865670 0.154945
v -0.048113 1.847593 0.168626
v -0.044156 1.834751 0.167756
v -0.077803 1.847664 0.138345
v -0.090070 1.872457 0.130774
v -0.176011 1.613180 0.119611
v -0.221701 1.775855 0.013491
v -0.179432 1.602473 -0.221100
v -0.207651 1.773702 -0.113924
v -0.311456 1.618628 0.070759
v -0.388251 1.772901 0.013491
v -0.335085 1.618628 -0.163263
v -0.390344 1.784703 -0.119102
v -0.126352 1.452214 -0.054375
v -0.211825 1.824622 -0.054375
v -0.414173 1.589278 -0.054375
v -0.511086 1.893568 -0.022049
v -0.130138 1.695026 0.070185
v -0.119808 1.703887 -0.166947
v -0.335085 1.690595 -0.106398
v -0.307025 1.683211 0.000774
v -0.396818 1.707018 -0.046481
v -0.084818 1.705380 -0.054375
v 0.000000 1.493781 0.247814
v -0.169613 1.462574 0.213619
v 0.000000 1.638664 0.165908
v -0.079091 1.622095 0.163430
v 0.000000 1.233944 0.203830
v -0.129739 1.292614 0.159332
v -0.199620 1.402301 0.110027
v -0.157746 1.648486 0.114022
vt 0.741894 0.716422
vt 0.789757 0.360222
vt 0.789757 0.719624
vt 0.531582 0.610252
vt 0.567179 0.642407
vt 0.606741 0.669535
vt 0.649564 0.691153
vt 0.694884 0.706875
vt 0.819179 0.062909
vt 0.999727 0.291807
vt 0.790304 0.088992
vt 0.999727 0.000273
vt 0.960902 0.002870
vt 0.922769 0.010614
vt 0.886007 0.023368
vt 0.851270 0.040903
vt 0.675310 0.963599
vt 0.708019 0.720170
vt 0.708019 0.965787
vt 0.531582 0.891043
vt 0.555909 0.913017
vt 0.582946 0.931557
vt 0.612211 0.946330
vt 0.643183 0.957075
vt 0.098119 0.906876
vt 0.108730 0.878370
vt 0.141132 0.879840
vt 0.123046 0.906876
vt 0.088354 0.876890
vt 0.075699 0.906876
vt 0.000273 0.906876
vt 0.023436 0.860697
vt 0.222613 0.847294
vt 0.174793 0.906876
vt 0.119253 0.869430
vt 0.133675 0.861157
vt 0.131672 0.819073
vt 0.154735 0.830027
vt 0.062133 0.816402
vt 0.093602 0.828557
vt 0.105341 0.867333
vt 0.112851 0.858046
vt 0.099762 0.868221
vt 0.102509 0.844406
vt 0.118678 0.836560
vt 0.531035 0.107642
vt 0.513788 0.270093
vt 0.467959 0.217368
vt 0.452767 0.155533
vt 0.402567 0.261736
vt 0.385569 0.235827
vt 0.375038 0.269749
vt 0.403608 0.266437
vt 0.400866 0.275784
vt 0.385713 0.315326
vt 0.460134 0.316892
vt 0.443933 0.385584
vt 0.314240 0.532943
vt 0.265928 0.255391
vt 0.357200 0.358770
vt 0.401074 0.401167
vt 0.395139 0.135213
vt 0.360340 0.199407
vt 0.334177 0.000273
vt 0.531035 0.434842
vt 0.143913 0.674673
vt 0.133833 0.592464
vt 0.229060 0.624936
vt 0.238687 0.674673
vt 0.000273 0.674674
vt 0.033151 0.590985
vt 0.101474 0.533490
vt 0.243312 0.565447
vt 0.741894 0.003475
vt 0.789757 0.000273
vt 0.789757 0.359675
vt 0.531582 0.109645
vt 0.567179 0.077490
vt 0.606741 0.050362
vt 0.649564 0.028744
vt 0.694884 0.013021
vt 0.294803 0.762389
vt 0.265928 0.736306
vt 0.475350 0.533490
vt 0.475350 0.825024
vt 0.436526 0.822427
vt 0.398393 0.814683
vt 0.361630 0.801930
vt 0.326894 0.784394
vt 0.852294 0.722358
vt 0.885004 0.720170
vt 0.885004 0.965787
vt 0.708566 0.794915
vt 0.732893 0.772940
vt 0.759930 0.754401
vt 0.789195 0.739627
vt 0.820167 0.728882
vt 0.141132 0.933912
vt 0.108730 0.935382
vt 0.088354 0.936861
vt 0.023436 0.953054
vt 0.222613 0.966457
vt 0.133675 0.952595
vt 0.119253 0.944321
vt 0.154735 0.983725
vt 0.131671 0.994679
vt 0.062133 0.997349
vt 0.093602 0.985195
vt 0.105341 0.946419
vt 0.112851 0.955705
vt 0.099762 0.945531
vt 0.102509 0.969345
vt 0.118678 0.977192
vt 0.265381 0.425574
vt 0.187113 0.377683
vt 0.202305 0.315848
vt 0.248134 0.263123
vt 0.119915 0.297390
vt 0.136913 0.271480
vt 0.109384 0.263468
vt 0.120059 0.217890
vt 0.135212 0.257433
vt 0.137954 0.266779
vt 0.178279 0.147632
vt 0.194480 0.216325
vt 0.048586 0.000273
vt 0.135420 0.132050
vt 0.091546 0.174447
vt 0.000273 0.277825
vt 0.129485 0.398003
vt 0.068523 0.532943
vt 0.094685 0.333809
vt 0.265381 0.098375
vt 0.229060 0.724409
vt 0.133834 0.756881
vt 0.033153 0.758362
vt 0.101476 0.815856
vt 0.243312 0.783897
vn 0.0540 -0.4869 -0.8718
vn 0.4044 0.7379 -0.5402
vn 0.8389 -0.4743 -0.2669
vn 0.8389 0.1111 0.5327
vn 0.0540 0.6839 0.7275
vn -0.7310 0.6713 0.1227
vn -0.7310 0.0858 -0.6770
vn -0.0640 -0.6934 -0.7177
vn 0.5691 0.4602 -0.6814
vn 0.7012 -0.7075 -0.0881
vn 0.8412 0.0473 0.5387
vn 0.2159 0.8162 0.5358
vn -0.5492 0.8303 -0.0938
vn -0.6892 0.0755 -0.7205
vn -0.1421 -0.8813 -0.4506
vn 0.6230 0.1415 -0.7693
vn 0.6129 -0.7690 0.1814
vn 0.8382 0.1312 0.5294
vn 0.3084 0.9191 0.2453
vn -0.4466 0.8068 -0.3868
vn -0.6719 -0.0934 -0.7347
vn 0.0000 -0.0867 0.9962
vn 0.8285 0.0310 0.5590
vn 0.5138 0.3077 0.8008
vn 0.0000 0.3684 0.9297
vn 0.8559 -0.1167 0.5038
vn 0.0000 -0.3540 0.9352
vn 0.0000 -0.3377 0.9413
vn 0.8095 -0.2209 0.5440
vn 0.4739 0.3313 0.8159
vn 0.0000 0.4215 0.9068
vn 0.5911 -0.0512 0.8050
vn 0.5726 0.0823 0.8157
vn 0.7834 -0.2611 0.5640
vn 0.6136 0.0902 0.7844
vn 0.8878 -0.2117 0.4087
vn 0.8680 -0.1639 0.4686
vn 0.9015 -0.1173 0.4166
vn 0.7526 -0.3628 0.5495
vn 0.8714 0.1943 0.4504
vn 0.8292 0.0134 0.5588
vn 0.7880 -0.3313 0.5189
vn -0.9451 0.3265 0.0088
vn -0.3937 0.9190 0.0187
vn -0.2186 0.5919 -0.7758
vn -0.5884 0.3455 -0.7310
vn 0.4115 0.1790 -0.8936
vn 0.5163 0.2017 -0.8323
vn 0.9697 -0.2296 0.0834
vn 0.7406 0.6659 0.0896
vn 0.3186 -0.0047 0.9478
vn 0.4478 0.2197 0.8667
vn -0.1935 0.5098 0.8383
vn -0.5726 0.3612 0.7360
vn -0.4243 -0.9055 0.0031
vn 0.9369 -0.3488 0.0195
vn 0.5082 -0.1036 0.8550
vn -0.1832 -0.1092 0.9770
vn -0.1784 -0.1780 -0.9677
vn 0.5289 -0.1177 -0.8404
vn 0.0000 0.1452 0.9894
vn 0.6155 0.0787 0.7842
vn 0.4844 0.4180 0.7685
vn 0.0000 0.4520 0.8920
vn 0.0000 -0.2473 0.9689
vn 0.4434 -0.2803 0.8514
vn 0.8690 -0.0804 0.4881
vn 0.8045 0.3195 0.5006
vn -0.0540 -0.4869 -0.8718
vn -0.8389 -0.4743 -0.2669
vn -0.4044 0.7379 -0.5402
vn -0.8389 0.1111 0.5327
vn -0.0540 0.6839 0.7275
vn 0.7310 0.6713 0.1227
vn 0.7310 0.0858 -0.6770
vn 0.0640 -0.6934 -0.7177
vn -0.7012 -0.7075 -0.0881
vn -0.5691 0.4602 -0.6814
vn -0.8412 0.0473 0.5387
vn -0.2159 0.8162 0.5358
vn 0.5492 0.8303 -0.0938
vn 0.6892 0.0755 -0.7205
vn 0.1421 -0.8813 -0.4506
vn -0.6129 -0.7690 0.1814
vn -0.6230 0.1415 -0.7693
vn -0.8382 0.1312 0.5294
vn -0.3084 0.9191 0.2453
vn 0.4466 0.8068 -0.3868
vn 0.6719 -0.0934 -0.7347
vn -0.5138 0.3077 0.8008
vn -0.8285 0.0310 0.5590
vn -0.8559 -0.1167 0.5038
vn -0.8095 -0.2209 0.5440
vn -0.4739 0.3313 0.8159
vn -0.5726 0.0823 0.8157
vn -0.5911 -0.0512 0.8050
vn -0.6136 0.0902 0.7844
vn -0.7834 -0.2611 0.5640
vn -0.8878 -0.2117 0.4087
vn -0.8680 -0.1639 0.4686
vn -0.9015 -0.1173 0.4166
vn -0.7526 -0.3628 0.5495
vn -0.8714 0.1943 0.4504
vn -0.8292 0.0134 0.5588
vn -0.7880 -0.3313 0.5189
vn 0.9451 0.3265 0.0088
vn 0.5884 0.3455 -0.7310
vn 0.2186 0.5919 -0.7758
vn 0.3937 0.9190 0.0187
vn -0.5163 0.2017 -0.8323
vn -0.4115 0.1790 -0.8936
vn -0.9697 -0.2296 0.0834
vn -0.4478 0.2197 0.8667
vn -0.3186 -0.0047 0.9478
vn -0.7406 0.6659 0.0896
vn 0.5726 0.3612 0.7360
vn 0.1935 0.5098 0.8383
vn 0.4243 -0.9055 0.0031
vn 0.1832 -0.1092 0.9770
vn -0.5082 -0.1036 0.8550
vn -0.9369 -0.3488 0.0195
vn 0.1784 -0.1780 -0.9677
vn -0.5289 -0.1177 -0.8404
vn -0.4844 0.4180 0.7685
vn -0.6155 0.0787 0.7842
vn -0.4434 -0.2803 0.8514
vn -0.8690 -0.0804 0.4881
vn -0.8045 0.3195 0.5006
usemtl None
s 1
f 1/1/1 7/2/2 2/3/3
f 2/4/3 7/2/2 3/5/4
f 3/5/4 7/2/2 4/6/5
f 4/6/5 7/2/2 5/7/6
f 5/7/6 7/2/2 6/8/7
f 6/8/7 7/2/2 1/1/1
f 8/9/8 14/10/9 9/11/10
f 9/12/10 14/10/9 10/13/11
f 10/13/11 14/10/9 11/14/12
f 11/14/12 14/10/9 12/15/13
f 12/15/13 14/10/9 13/16/14
f 13/16/14 14/10/9 8/9/8
f 15/17/15 21/18/16 16/19/17
f 16/20/17 21/18/16 17/21/18
f 17/21/18 21/18/16 18/22/19
f 18/22/19 21/18/16 19/23/20
f 19/23/20 21/18/16 20/24/21
f 20/24/21 21/18/16 15/17/15
f 82/25/22 22/26/23 23/27/24 84/28/25
f 30/29/26 94/30/27 86/31/28 24/32/29
f 84/28/25 23/27/24 25/33/30 88/34/31
f 23/27/24 22/26/23 26/35/32 27/36/33
f 27/36/33 26/35/32 28/37/34 29/38/35
f 25/33/30 23/27/24 27/36/33 29/38/35
f 22/26/23 82/25/22 94/30/27 30/29/26
f 32/39/36 31/40/37 30/29/26 24/32/29
f 34/41/38 33/42/39 26/35/32 22/26/23
f 35/43/40 34/41/38 22/26/23 30/29/26
f 31/40/37 36/44/41 35/43/40 30/29/26
f 28/37/34 26/35/32 33/42/39 37/45/42
f 36/44/41 31/40/37 28/37/34 37/45/42
f 55/46/43 47/47/44 41/48/45 51/49/46
f 51/49/46 41/48/45 45/50/47 52/51/48
f 54/52/49 49/53/50 43/54/51 53/55/52
f 53/55/52 43/54/51 39/56/53 50/57/54
f 46/58/55 48/59/56 42/60/57 38/61/58
f 49/53/50 47/47/44 39/56/53 43/54/51
f 45/50/47 41/48/45 47/47/44 49/53/50
f 40/62/59 44/63/60 48/59/56 46/64/55
f 52/51/48 45/50/47 49/53/50 54/52/49
f 50/57/54 39/56/53 47/47/44 55/65/43
f 38/61/58 50/57/54 55/65/43 46/58/55
f 44/63/60 52/51/48 54/52/49 48/59/56
f 42/60/57 53/55/52 50/57/54 38/61/58
f 48/59/56 54/52/49 53/55/52 42/60/57
f 40/62/59 51/49/46 52/51/48 44/63/60
f 46/64/55 55/46/43 51/49/46 40/62/59
f 121/66/61 56/67/62 57/68/63 123/69/64
f 56/67/62 121/66/61 125/70/65 58/71/66
f 59/72/67 60/73/68 57/68/63 56/67/62
f 56/67/62 58/71/66 59/72/67
f 61/74/69 62/75/70 67/76/71
f 62/77/70 63/78/72 67/76/71
f 63/78/72 64/79/73 67/76/71
f 64/79/73 65/80/74 67/76/71
f 65/80/74 66/81/75 67/76/71
f 66/81/75 61/74/69 67/76/71
f 68/82/76 69/83/77 74/84/78
f 69/85/77 70/86/79 74/84/78
f 70/86/79 71/87/80 74/84/78
f 71/87/80 72/88/81 74/84/78
f 72/88/81 73/89/82 74/84/78
f 73/89/82 68/82/76 74/84/78
f 75/90/83 76/91/84 81/92/85
f 76/93/84 77/94/86 81/92/85
f 77/94/86 78/95/87 81/92/85
f 78/95/87 79/96/88 81/92/85
f 79/96/88 80/97/89 81/92/85
f 80/97/89 75/90/83 81/92/85
f 82/25/22 84/28/25 85/98/90 83/99/91
f 95/100/92 87/101/93 86/31/28 94/30/27
f 84/28/25 88/34/31 89/102/94 85/98/90
f 85/98/90 91/103/95 90/104/96 83/99/91
f 91/103/95 93/105/97 92/106/98 90/104/96
f 89/102/94 93/105/97 91/103/95 85/98/90
f 83/99/91 95/100/92 94/30/27 82/25/22
f 97/107/99 87/101/93 95/100/92 96/108/100
f 99/109/101 83/99/91 90/104/96 98/110/102
f 100/111/103 95/100/92 83/99/91 99/109/101
f 96/108/100 95/100/92 100/111/103 101/112/104
f 92/106/98 102/113/105 98/110/102 90/104/96
f 101/112/104 102/113/105 92/106/98 96/108/100
f 120/114/106 116/115/107 106/116/108 112/117/109
f 116/115/107 117/118/110 110/119/111 106/116/108
f 119/120/112 118/121/113 108/122/114 114/123/115
f 118/121/113 115/124/116 104/125/117 108/122/114
f 111/126/118 103/127/119 107/128/120 113/129/121
f 114/123/115 108/122/114 104/125/117 112/117/109
f 110/119/111 114/123/115 112/117/109 106/116/108
f 105/130/122 111/131/118 113/129/121 109/132/123
f 117/118/110 119/120/112 114/123/115 110/119/111
f 115/124/116 120/133/106 112/117/109 104/125/117
f 103/127/119 111/126/118 120/133/106 115/124/116
f 109/132/123 113/129/121 119/120/112 117/118/110
f 107/128/120 103/127/119 115/124/116 118/121/113
f 113/129/121 107/128/120 118/121/113 119/120/112
f 105/130/122 109/132/123 117/118/110 116/115/107
f 111/131/118 105/130/122 116/115/107 120/114/106
f 121/66/61 123/69/64 124/134/124 122/135/125
f 122/135/125 126/136/126 125/70/65 121/66/61
f 127/137/127 122/135/125 124/134/124 128/138/128
f 122/135/125 127/137/127 126/136/126
